<svg width="256" height="256" viewBox="0 0 256 256" fill="none" xmlns="http://www.w3.org/2000/svg">
<path d="M254.306 159.261H1.40649V27.3907C1.40649 18.9916 8.2376 12.1605 16.6367 12.1605H239.076C247.473 12.1605 254.306 18.9916 254.306 27.3907V159.261ZM7.02649 153.641H248.686V27.3907C248.686 22.091 244.376 17.7805 239.076 17.7805H16.6367C11.337 17.7805 7.02649 22.091 7.02649 27.3907V153.641Z" fill="black"/>
<path d="M239.076 194.173H16.6367C8.2376 194.173 1.40649 187.339 1.40649 178.942V153.641H254.306V178.942C254.306 187.339 247.473 194.173 239.076 194.173ZM7.02649 159.261V178.942C7.02649 184.242 11.337 188.553 16.6367 188.553H239.076C244.376 188.553 248.686 184.242 248.686 178.942V159.261H7.02649Z" fill="black"/>
<path d="M166.705 228.913H89.0084C87.7944 228.913 86.7182 228.134 86.3389 226.979C85.9595 225.824 86.367 224.56 87.3448 223.841C98.0172 216.003 105.141 204.03 106.888 190.992C107.074 189.598 108.265 188.555 109.673 188.555H146.034C147.442 188.555 148.634 189.595 148.819 190.992C150.567 204.033 157.693 216.003 168.366 223.841C169.346 224.56 169.751 225.824 169.372 226.979C168.992 228.134 167.922 228.913 166.705 228.913ZM96.6291 223.293H159.087C151.098 215.425 145.644 205.205 143.638 194.173H112.076C110.072 205.205 104.618 215.425 96.6291 223.293Z" fill="black"/>
<path d="M172.968 243.556H82.7448C77.1585 243.556 72.6147 239.012 72.6147 233.425C72.6147 227.839 77.1585 223.295 82.7448 223.295H172.968C178.555 223.295 183.098 227.839 183.098 233.425C183.098 239.012 178.555 243.556 172.968 243.556ZM82.7448 228.913C80.2579 228.913 78.2347 230.936 78.2347 233.423C78.2347 235.91 80.2579 237.933 82.7448 237.933H172.968C175.458 237.933 177.478 235.91 177.478 233.423C177.478 230.936 175.455 228.913 172.968 228.913H82.7448Z" fill="black"/>
<path d="M132.636 176.717H123.077C121.525 176.717 120.267 175.461 120.267 173.907C120.267 172.353 121.525 171.097 123.077 171.097H132.636C134.19 171.097 135.446 172.353 135.446 173.907C135.446 175.461 134.19 176.717 132.636 176.717Z" fill="black"/>
<path d="M147.737 134.024C146.607 134.024 145.465 133.75 144.418 133.172L137.509 129.354C134.328 127.596 133.235 123.69 135.071 120.646C135.778 119.472 135.724 118.009 134.929 116.82C134.704 116.487 134.486 116.143 134.275 115.793C134.062 115.439 133.862 115.088 133.671 114.734C132.992 113.48 131.695 112.702 130.279 112.702C126.606 112.702 123.618 109.843 123.618 106.328V98.6941C123.618 95.1789 126.606 92.3204 130.279 92.3204C131.695 92.3204 132.979 91.5684 133.628 90.3589C134.044 89.5862 134.497 88.837 134.975 88.1265C135.741 86.9889 135.778 85.5514 135.071 84.3806C134.181 82.9057 133.944 81.1875 134.405 79.5426C134.864 77.8977 135.968 76.5223 137.507 75.6722L144.416 71.8544C145.957 71.0043 147.756 70.7776 149.47 71.2171C151.189 71.6581 152.626 72.7128 153.516 74.1877C154.224 75.3612 155.546 76.051 156.955 75.9832C157.842 75.9431 158.749 75.9431 159.648 75.9832C161.076 76.0468 162.389 75.3626 163.097 74.1904C164.936 71.1466 169.018 70.0961 172.199 71.8544L179.109 75.6722C182.288 77.4305 183.382 81.3368 181.547 84.3806C180.839 85.5527 180.894 87.0193 181.69 88.2053C181.914 88.5398 182.135 88.8854 182.346 89.2351C182.557 89.5848 182.756 89.9359 182.948 90.2912C183.627 91.5449 184.924 92.3231 186.34 92.3231C190.013 92.3231 193 95.1817 193 98.6968V106.331C193 109.846 190.013 112.705 186.34 112.705C184.924 112.705 183.64 113.457 182.99 114.668C182.584 115.422 182.131 116.173 181.645 116.896C180.877 118.038 180.839 119.472 181.549 120.646C183.384 123.69 182.291 127.596 179.11 129.356L172.2 133.172C169.018 134.929 164.937 133.88 163.1 130.839C162.394 129.665 161.072 128.974 159.661 129.043C158.781 129.083 157.874 129.083 156.968 129.043C155.554 128.98 154.227 129.663 153.519 130.836C152.286 132.881 150.042 134.024 147.737 134.024ZM147.743 73.7619C147.09 73.7619 146.444 73.9264 145.862 74.2485L138.953 78.0663C138.081 78.5487 137.457 79.327 137.195 80.2572C136.934 81.1875 137.068 82.162 137.572 82.9969C138.823 85.0703 138.758 87.6082 137.405 89.6235C136.976 90.2608 136.57 90.9339 136.197 91.6237C135.052 93.7579 132.786 95.0849 130.282 95.0849C128.201 95.0849 126.507 96.705 126.507 98.6941V106.328C126.507 108.317 128.199 109.937 130.279 109.937C132.777 109.937 135.061 111.289 136.236 113.464C136.408 113.78 136.589 114.097 136.777 114.413C136.963 114.72 137.158 115.026 137.359 115.327C138.74 117.389 138.822 119.956 137.571 122.028C136.531 123.752 137.151 125.965 138.952 126.959L145.861 130.777C147.659 131.773 149.973 131.18 151.013 129.455C152.267 127.379 154.589 126.171 157.106 126.28C157.917 126.317 158.728 126.317 159.516 126.28C162.02 126.145 164.348 127.38 165.6 129.454C166.64 131.178 168.952 131.769 170.753 130.777L177.663 126.959C179.463 125.964 180.082 123.752 179.042 122.028C177.792 119.953 177.857 117.414 179.211 115.4C179.648 114.751 180.052 114.077 180.416 113.401C181.564 111.266 183.832 109.939 186.334 109.939C188.415 109.939 190.108 108.319 190.108 106.33V98.6954C190.108 96.7063 188.415 95.0863 186.337 95.0863C183.839 95.0863 181.556 93.7344 180.38 91.5601C180.21 91.2436 180.029 90.9284 179.84 90.6146C179.652 90.3009 179.457 89.9968 179.258 89.6982C177.875 87.6358 177.793 85.0676 179.044 82.9969C180.084 81.2732 179.464 79.0602 177.664 78.0649L170.756 74.2471C168.954 73.2519 166.642 73.8449 165.603 75.5686C164.352 77.642 162.028 78.8432 159.511 78.7423C158.705 78.7049 157.893 78.7049 157.098 78.7423C154.575 78.8404 152.268 77.642 151.017 75.5686C150.513 74.7337 149.7 74.1351 148.726 73.8849C148.4 73.8034 148.071 73.7619 147.743 73.7619ZM158.335 118.039C156.925 118.039 155.51 117.861 154.111 117.503C149.928 116.43 146.43 113.862 144.263 110.272C139.793 102.862 142.456 93.3502 150.2 89.0706C153.951 86.9972 158.325 86.4485 162.506 87.5197C166.691 88.5924 170.188 91.162 172.355 94.7504C176.825 102.162 174.162 111.674 166.418 115.952C163.919 117.334 161.144 118.039 158.335 118.039ZM158.287 89.7507C155.978 89.7507 153.698 90.3299 151.644 91.4647C145.28 94.9813 143.09 102.798 146.765 108.888C148.544 111.84 151.42 113.949 154.86 114.832C158.297 115.714 161.89 115.262 164.974 113.556C171.338 110.04 173.528 102.224 169.853 96.1327C168.073 93.1815 165.199 91.0722 161.758 90.1903C160.61 89.8959 159.446 89.7507 158.287 89.7507Z" fill="black"/>
<path d="M99.9113 134.022C98.2834 134.022 96.6353 133.627 95.1259 132.793L84.3186 126.822C82.097 125.595 80.5081 123.614 79.8437 121.242C79.1792 118.871 79.5201 116.394 80.8028 114.268C82.0623 112.181 81.9699 109.578 80.5616 107.476C80.2163 106.959 79.8812 106.433 79.5577 105.896C79.2341 105.358 78.925 104.818 78.6303 104.272C77.4314 102.054 75.1218 100.676 72.6041 100.676C67.3073 100.678 63 96.5529 63 91.4855V79.544C63 74.4766 67.3073 70.3546 72.6027 70.3546C75.1276 70.3546 77.4112 69.0166 78.5668 66.8644C79.198 65.6908 79.8913 64.5394 80.6323 63.4377C81.9973 61.4099 82.0623 58.8527 80.8028 56.7641C78.1551 52.3739 79.731 46.7412 84.3171 44.2075L95.1244 38.236C99.7091 35.7037 105.595 37.2117 108.244 41.6005C109.505 43.6905 111.841 44.929 114.37 44.7977C115.748 44.7369 117.139 44.7355 118.503 44.7977C121.036 44.9249 123.382 43.6919 124.642 41.6032C125.926 39.4732 127.997 37.9526 130.476 37.3168C132.957 36.6823 135.541 37.0072 137.763 38.2346L148.57 44.2061C153.156 46.7398 154.732 52.3726 152.086 56.7613C150.827 58.8471 150.919 61.4514 152.327 63.5552C152.626 64.0003 152.914 64.4592 153.198 64.9209C153.601 65.5802 153.372 66.4262 152.684 66.8132C152.001 67.2002 151.113 66.9805 150.708 66.3211C150.444 65.8898 150.177 65.4627 149.896 65.048C147.903 62.0692 147.783 58.3647 149.584 55.3804C151.435 52.3117 150.334 48.375 147.127 46.6016L136.32 40.6315C134.769 39.7731 132.956 39.5464 131.225 39.9901C129.494 40.4338 128.045 41.4968 127.149 42.9841C125.344 45.9781 121.967 47.7309 118.364 47.5609C117.092 47.5 115.794 47.5014 114.512 47.5609C110.928 47.7336 107.55 45.9768 105.745 42.9869C104.848 41.4996 103.4 40.4352 101.668 39.9915C99.9373 39.5478 98.126 39.7759 96.5732 40.6329L85.7659 46.6043C82.5592 48.375 81.4571 52.3131 83.3074 55.3818C85.1116 58.3716 85.0191 62.0333 83.0648 64.9361C82.3743 65.9617 81.7258 67.0371 81.1393 68.1291C79.4854 71.2075 76.2181 73.1192 72.6099 73.1192C68.9006 73.1192 65.8889 76.0012 65.8889 79.544V91.4855C65.8889 95.0282 68.9006 97.9117 72.6027 97.9117C76.2051 97.9117 79.4984 99.8621 81.1957 103.003C81.4701 103.513 81.7576 104.013 82.058 104.513C82.3584 105.014 82.6704 105.503 82.9911 105.983C84.9859 108.96 85.1043 112.665 83.3031 115.65C82.4061 117.136 82.1678 118.868 82.6314 120.526C83.0951 122.183 84.2073 123.57 85.7601 124.427L96.5674 130.398C99.7727 132.17 103.888 131.114 105.74 128.047C107.545 125.053 110.918 123.326 114.523 123.469C115.799 123.527 117.094 123.527 118.376 123.469C121.985 123.315 125.341 125.055 127.143 128.044C127.151 128.056 127.158 128.069 127.165 128.08C128.15 129.689 129.833 130.8 131.786 131.132C132.572 131.265 133.096 131.982 132.957 132.733C132.817 133.485 132.072 133.989 131.285 133.854C128.474 133.378 126.054 131.765 124.643 129.429C124.636 129.417 124.629 129.404 124.621 129.393C123.358 127.327 121.048 126.117 118.516 126.232C117.144 126.297 115.751 126.297 114.383 126.232C111.855 126.106 109.505 127.336 108.244 129.426C106.469 132.372 103.234 134.022 99.9113 134.022Z" fill="black"/>
<path d="M116.446 109.003C107.669 109.003 99.5878 104.566 95.1808 97.2634C88.4121 86.0434 92.4435 71.6456 104.168 65.1683C114.21 59.6226 127.084 61.6145 134.777 69.9123C135.306 70.4832 135.253 71.3568 134.656 71.864C134.059 72.3686 133.145 72.3188 132.616 71.7479C125.829 64.4302 114.471 62.6705 105.613 67.5652C95.2674 73.2795 91.7112 85.984 97.684 95.8839C101.715 102.564 109.237 106.538 117.31 106.225C118.108 106.175 118.779 106.79 118.809 107.552C118.841 108.315 118.22 108.957 117.422 108.986C117.097 108.996 116.771 109.003 116.446 109.003Z" fill="black"/>
</svg>
