<svg width="334" height="334" viewBox="0 0 334 334" fill="none" xmlns="http://www.w3.org/2000/svg">
<rect x="107" width="2" height="334" fill="url(#paint0_linear_106_28)"/>
<rect x="334" y="104" width="2" height="334" transform="rotate(90 334 104)" fill="url(#paint1_linear_106_28)"/>
<rect x="148" width="2" height="334" fill="url(#paint2_linear_106_28)"/>
<rect x="334" y="145" width="2" height="334" transform="rotate(90 334 145)" fill="url(#paint3_linear_106_28)"/>
<rect x="189" width="2" height="334" fill="url(#paint4_linear_106_28)"/>
<rect x="334" y="186" width="2" height="334" transform="rotate(90 334 186)" fill="url(#paint5_linear_106_28)"/>
<rect x="230" width="2" height="334" fill="url(#paint6_linear_106_28)"/>
<rect x="334" y="227" width="2" height="334" transform="rotate(90 334 227)" fill="url(#paint7_linear_106_28)"/>
<defs>
<linearGradient id="paint0_linear_106_28" x1="108" y1="0" x2="108" y2="334" gradientUnits="userSpaceOnUse">
<stop stop-opacity="0"/>
<stop offset="0.48" stop-color="#130707"/>
<stop offset="1" stop-opacity="0"/>
</linearGradient>
<linearGradient id="paint1_linear_106_28" x1="335" y1="104" x2="335" y2="438" gradientUnits="userSpaceOnUse">
<stop stop-opacity="0"/>
<stop offset="0.48" stop-color="#130707"/>
<stop offset="1" stop-opacity="0"/>
</linearGradient>
<linearGradient id="paint2_linear_106_28" x1="149" y1="0" x2="149" y2="334" gradientUnits="userSpaceOnUse">
<stop stop-opacity="0"/>
<stop offset="0.48" stop-color="#130707"/>
<stop offset="1" stop-opacity="0"/>
</linearGradient>
<linearGradient id="paint3_linear_106_28" x1="335" y1="145" x2="335" y2="479" gradientUnits="userSpaceOnUse">
<stop stop-opacity="0"/>
<stop offset="0.48" stop-color="#130707"/>
<stop offset="1" stop-opacity="0"/>
</linearGradient>
<linearGradient id="paint4_linear_106_28" x1="190" y1="0" x2="190" y2="334" gradientUnits="userSpaceOnUse">
<stop stop-opacity="0"/>
<stop offset="0.48" stop-color="#130707"/>
<stop offset="1" stop-opacity="0"/>
</linearGradient>
<linearGradient id="paint5_linear_106_28" x1="335" y1="186" x2="335" y2="520" gradientUnits="userSpaceOnUse">
<stop stop-opacity="0"/>
<stop offset="0.48" stop-color="#130707"/>
<stop offset="1" stop-opacity="0"/>
</linearGradient>
<linearGradient id="paint6_linear_106_28" x1="231" y1="0" x2="231" y2="334" gradientUnits="userSpaceOnUse">
<stop stop-opacity="0"/>
<stop offset="0.48" stop-color="#130707"/>
<stop offset="1" stop-opacity="0"/>
</linearGradient>
<linearGradient id="paint7_linear_106_28" x1="335" y1="227" x2="335" y2="561" gradientUnits="userSpaceOnUse">
<stop stop-opacity="0"/>
<stop offset="0.48" stop-color="#130707"/>
<stop offset="1" stop-opacity="0"/>
</linearGradient>
</defs>
</svg>
