<svg width="256" height="256" viewBox="0 0 256 256" fill="none" xmlns="http://www.w3.org/2000/svg">
<path d="M24.1396 73.9327C23.4202 73.9327 22.7008 73.6573 22.1529 73.1094C21.0542 72.0107 21.0542 70.2347 22.1529 69.136L43.4443 47.8446C44.543 46.7459 46.3189 46.7459 47.4176 47.8446C48.5163 48.9434 48.5163 50.7193 47.4176 51.818L26.1262 73.1094C25.5783 73.6573 24.8589 73.9327 24.1396 73.9327Z" fill="black"/>
<path d="M58.6294 63.2856C57.9101 63.2856 57.1907 63.0102 56.6428 62.4623C55.544 61.3636 55.544 59.5848 56.6428 58.4889L66.666 48.4657C67.7647 47.367 69.5407 47.367 70.6394 48.4657C71.7381 49.5644 71.7381 51.3431 70.6394 52.439L60.6161 62.4623C60.0653 63.013 59.3488 63.2856 58.6294 63.2856Z" fill="black"/>
<path d="M24.7633 97.1545C24.044 97.1545 23.3246 96.8791 22.7767 96.3312C21.678 95.2325 21.678 93.4566 22.7767 92.3579L47.3248 67.8097C48.4235 66.711 50.1995 66.711 51.2982 67.8097C52.3969 68.9084 52.3969 70.6843 51.2982 71.783L26.75 96.3312C26.1992 96.882 25.4799 97.1545 24.7633 97.1545Z" fill="black"/>
<path d="M243.117 26.6488H12.596C6.42528 26.6488 1.40662 31.6703 1.40662 37.8382V187.962C1.40662 194.133 6.42528 199.152 12.596 199.152H101.78V223.444H86.2967C84.7456 223.444 83.4867 224.7 83.4867 226.254C83.4867 227.808 84.7456 229.064 86.2967 229.064H101.78H153.931H169.414C170.968 229.064 172.224 227.808 172.224 226.254C172.224 224.7 170.968 223.444 169.414 223.444H153.931V199.152H243.114C249.285 199.152 254.304 194.133 254.304 187.962V37.8382C254.307 31.6703 249.288 26.6488 243.117 26.6488ZM12.596 32.2688H243.117C246.189 32.2688 248.687 34.7669 248.687 37.8382V156.01H7.02662V37.8382C7.02662 34.7669 9.52471 32.2688 12.596 32.2688ZM148.311 223.444H107.4V199.152H148.311V223.444ZM243.117 193.535H153.931H101.78H12.596C9.52471 193.535 7.02662 191.034 7.02662 187.962V161.63H248.687V187.962C248.687 191.034 246.186 193.535 243.117 193.535Z" fill="black"/>
<path d="M127.857 181.331C130.184 181.331 132.072 179.444 132.072 177.116C132.072 174.788 130.184 172.901 127.857 172.901C125.529 172.901 123.642 174.788 123.642 177.116C123.642 179.444 125.529 181.331 127.857 181.331Z" fill="black"/>
<path d="M147.749 72.6978C141.883 67.1865 134.203 64.4339 126.14 64.9393C111.804 65.8394 100.232 77.3194 99.2211 91.6432C98.5476 101.196 102.617 110.439 110.108 116.367C113.799 119.288 115.917 123.572 115.917 128.12V128.78V137.123C115.917 138.817 117.068 140.233 118.624 140.671V143.313C118.624 146.484 121.204 149.064 124.376 149.064H131.627C134.798 149.064 137.378 146.484 137.378 143.313V140.671C138.934 140.234 140.085 138.817 140.085 137.123V128.78V128.118C140.085 123.586 142.181 119.252 145.691 116.525C152.785 111.012 156.855 102.705 156.855 93.7328C156.854 85.7981 153.535 78.1319 147.749 72.6978ZM135.042 143.313C135.042 145.197 133.509 146.73 131.625 146.73H124.375C122.491 146.73 120.958 145.197 120.958 143.313V140.823H135.041V143.313H135.042ZM137.751 137.123C137.751 137.876 137.139 138.488 136.386 138.488H136.211H119.792H119.616C118.864 138.488 118.252 137.876 118.252 137.123V129.947H137.751V137.123ZM144.259 114.68C140.314 117.746 137.909 122.55 137.759 127.613H118.244C118.092 122.536 115.674 117.794 111.557 114.536C104.672 109.086 100.93 100.59 101.55 91.8066C102.478 78.6456 113.113 68.0959 126.286 67.2694C133.708 66.7978 140.758 69.3357 146.151 74.3998C151.547 79.4674 154.519 86.3339 154.519 93.734C154.519 101.979 150.78 109.614 144.259 114.68Z" fill="black"/>
<path d="M177.834 93.8332H165.051C164.405 93.8332 163.884 94.3562 163.884 95.0006C163.884 95.645 164.405 96.168 165.051 96.168H177.833C178.478 96.168 179 95.645 179 95.0006C179 94.3562 178.478 93.8332 177.834 93.8332Z" fill="black"/>
<path d="M92.1176 95.0006C92.1176 94.3562 91.5946 93.8332 90.9502 93.8332H78.1674C77.523 93.8332 77 94.3562 77 95.0006C77 95.645 77.523 96.168 78.1674 96.168H90.9502C91.5946 96.168 92.1176 95.645 92.1176 95.0006Z" fill="black"/>
<path d="M154.199 69.9696C154.498 69.9696 154.797 69.8552 155.024 69.6275L164.062 60.5885C164.519 60.132 164.519 59.3943 164.062 58.9378C163.606 58.4814 162.868 58.4814 162.412 58.9378L153.374 67.9769C152.917 68.4333 152.917 69.1711 153.374 69.6275C153.603 69.8552 153.901 69.9696 154.199 69.9696Z" fill="black"/>
<path d="M100.977 120.374L91.9378 129.413C91.4813 129.869 91.4813 130.607 91.9378 131.063C92.1654 131.291 92.4643 131.405 92.7631 131.405C93.062 131.405 93.3608 131.291 93.5885 131.063L102.628 122.024C103.084 121.568 103.084 120.83 102.628 120.374C102.171 119.917 101.432 119.917 100.977 120.374Z" fill="black"/>
<path d="M100.977 69.6275C101.204 69.8552 101.503 69.9696 101.802 69.9696C102.101 69.9696 102.4 69.8552 102.628 69.6275C103.084 69.1711 103.084 68.4333 102.628 67.9769L93.5885 58.9378C93.132 58.4814 92.3942 58.4814 91.9378 58.9378C91.4813 59.3943 91.4813 60.132 91.9378 60.5885L100.977 69.6275Z" fill="black"/>
<path d="M155.024 120.374C154.568 119.917 153.83 119.917 153.374 120.374C152.917 120.83 152.917 121.568 153.374 122.024L162.412 131.063C162.639 131.291 162.938 131.405 163.237 131.405C163.536 131.405 163.835 131.291 164.062 131.063C164.519 130.607 164.519 129.869 164.062 129.413L155.024 120.374Z" fill="black"/>
<path d="M128.001 59.1176C128.645 59.1176 129.168 58.5946 129.168 57.9502V45.1674C129.168 44.523 128.645 44 128.001 44C127.356 44 126.833 44.523 126.833 45.1674V57.9502C126.833 58.5946 127.356 59.1176 128.001 59.1176Z" fill="black"/>
<path d="M130.686 92.381H125.317C120.58 92.381 116.725 96.2357 116.725 100.973V111.335C116.725 115.12 119.804 118.2 123.59 118.2H132.412C136.198 118.2 139.278 115.12 139.278 111.335V100.973C139.276 96.2357 135.422 92.381 130.686 92.381ZM136.942 111.335C136.942 113.458 135.467 115.231 133.493 115.72V105.312C133.493 104.667 132.971 104.145 132.326 104.145C131.68 104.145 131.158 104.667 131.158 105.312V115.865H124.842V105.312C124.842 104.667 124.319 104.145 123.674 104.145C123.03 104.145 122.507 104.667 122.507 105.312V115.72C120.533 115.232 119.058 113.458 119.058 111.336V100.974C119.058 97.5233 121.865 94.7169 125.316 94.7169H130.686C134.135 94.7169 136.942 97.5233 136.942 100.974V111.335Z" fill="black"/>
<path d="M128.001 88.6535C131.63 88.6535 134.585 85.7001 134.585 82.0695V78.9736C134.585 75.343 131.631 72.3896 128.001 72.3896C124.37 72.3896 121.417 75.343 121.417 78.9736V82.0695C121.417 85.7001 124.37 88.6535 128.001 88.6535ZM123.751 78.9736C123.751 76.6307 125.658 74.7243 128.001 74.7243C130.343 74.7243 132.25 76.6307 132.25 78.9736V82.0695C132.25 84.4124 130.343 86.3188 128.001 86.3188C125.658 86.3188 123.751 84.4124 123.751 82.0695V78.9736Z" fill="black"/>
</svg>
