<svg width="256" height="256" viewBox="0 0 256 256" fill="none" xmlns="http://www.w3.org/2000/svg">
<path d="M254.306 159.261H1.40649V27.3907C1.40649 18.9916 8.2376 12.1605 16.6367 12.1605H239.076C247.473 12.1605 254.306 18.9916 254.306 27.3907V159.261ZM7.02649 153.641H248.686V27.3907C248.686 22.091 244.376 17.7805 239.076 17.7805H16.6367C11.337 17.7805 7.02649 22.091 7.02649 27.3907V153.641Z" fill="black"/>
<path d="M239.076 194.173H16.6367C8.2376 194.173 1.40649 187.339 1.40649 178.942V153.641H254.306V178.942C254.306 187.339 247.473 194.173 239.076 194.173ZM7.02649 159.261V178.942C7.02649 184.242 11.337 188.553 16.6367 188.553H239.076C244.376 188.553 248.686 184.242 248.686 178.942V159.261H7.02649Z" fill="black"/>
<path d="M166.705 228.913H89.0084C87.7944 228.913 86.7182 228.134 86.3389 226.979C85.9595 225.824 86.367 224.56 87.3448 223.841C98.0172 216.003 105.141 204.03 106.888 190.992C107.074 189.598 108.265 188.555 109.673 188.555H146.034C147.442 188.555 148.634 189.595 148.819 190.992C150.567 204.033 157.693 216.003 168.366 223.841C169.346 224.56 169.751 225.824 169.372 226.979C168.992 228.134 167.922 228.913 166.705 228.913ZM96.6291 223.293H159.087C151.098 215.425 145.644 205.205 143.638 194.173H112.076C110.072 205.205 104.618 215.425 96.6291 223.293Z" fill="black"/>
<path d="M172.968 243.556H82.7448C77.1585 243.556 72.6147 239.012 72.6147 233.425C72.6147 227.839 77.1585 223.295 82.7448 223.295H172.968C178.555 223.295 183.098 227.839 183.098 233.425C183.098 239.012 178.555 243.556 172.968 243.556ZM82.7448 228.913C80.2579 228.913 78.2347 230.936 78.2347 233.423C78.2347 235.91 80.2579 237.933 82.7448 237.933H172.968C175.458 237.933 177.478 235.91 177.478 233.423C177.478 230.936 175.455 228.913 172.968 228.913H82.7448Z" fill="black"/>
<path d="M132.636 176.717H123.077C121.525 176.717 120.267 175.461 120.267 173.907C120.267 172.353 121.525 171.097 123.077 171.097H132.636C134.19 171.097 135.446 172.353 135.446 173.907C135.446 175.461 134.19 176.717 132.636 176.717Z" fill="black"/>
<path d="M103.367 113.045C93.5548 113.045 90.7279 104.312 88.4546 97.295C86.1279 90.1099 84.4419 85.7066 79.2856 85.7066C77.7345 85.7066 76.4756 84.4477 76.4756 82.8966C76.4756 81.3455 77.7345 80.0866 79.2856 80.0866C84.4419 80.0866 86.1307 75.6833 88.4574 68.4981C90.7307 61.4788 93.5576 52.7481 103.37 52.7481C104.921 52.7481 106.18 54.007 106.18 55.5581C106.18 57.1092 104.921 58.3681 103.37 58.3681C97.9215 58.3681 96.1849 62.8753 93.8049 70.2291C92.3689 74.6661 90.7054 79.7972 87.1733 82.8966C90.7054 85.996 92.3689 91.1271 93.8049 95.5641C96.1849 102.918 97.9215 107.425 103.37 107.425C104.921 107.425 106.18 108.684 106.18 110.235C106.18 111.786 104.918 113.045 103.367 113.045Z" fill="black"/>
<path d="M152.346 113.045C150.792 113.045 149.536 111.786 149.536 110.235C149.536 108.684 150.792 107.425 152.346 107.425C157.791 107.425 159.531 102.918 161.911 95.5613C163.347 91.1271 165.01 85.9932 168.542 82.8966C165.008 79.7972 163.344 74.6661 161.911 70.2319C159.528 62.8753 157.791 58.3681 152.346 58.3681C150.792 58.3681 149.536 57.1092 149.536 55.5581C149.536 54.007 150.792 52.7481 152.346 52.7481C162.158 52.7481 164.985 61.4816 167.258 68.4981C169.585 75.6833 171.271 80.0866 176.427 80.0866C177.981 80.0866 179.237 81.3455 179.237 82.8966C179.237 84.4477 177.981 85.7066 176.427 85.7066C171.271 85.7066 169.582 90.1099 167.256 97.295C164.985 104.312 162.158 113.045 152.346 113.045Z" fill="black"/>
<path d="M116.81 119.573C116.515 119.573 116.215 119.525 115.917 119.427C114.447 118.932 113.652 117.339 114.146 115.869L136.851 48.1397C137.346 46.6701 138.939 45.8776 140.409 46.3694C141.881 46.864 142.676 48.4572 142.182 49.9269L119.477 117.656C119.081 118.828 117.985 119.573 116.81 119.573Z" fill="black"/>
</svg>
