<svg width="334" height="334" viewBox="0 0 334 334" fill="none" xmlns="http://www.w3.org/2000/svg">
<rect x="188" width="4" height="334" fill="url(#paint0_linear_104_20)"/>
<rect y="161" width="4" height="334" transform="rotate(-90 0 161)" fill="url(#paint1_linear_104_20)"/>
<rect x="52" width="4" height="334" fill="url(#paint2_linear_104_20)"/>
<rect y="298" width="4" height="334" transform="rotate(-90 0 298)" fill="url(#paint3_linear_104_20)"/>
<rect x="222" width="5" height="334" fill="url(#paint4_linear_104_20)"/>
<rect y="127" width="4" height="334" transform="rotate(-90 0 127)" fill="url(#paint5_linear_104_20)"/>
<rect x="86" width="4" height="334" fill="url(#paint6_linear_104_20)"/>
<rect y="264" width="4" height="334" transform="rotate(-90 0 264)" fill="url(#paint7_linear_104_20)"/>
<rect x="256" width="5" height="334" fill="url(#paint8_linear_104_20)"/>
<rect y="93" width="4" height="334" transform="rotate(-90 0 93)" fill="url(#paint9_linear_104_20)"/>
<rect x="120" width="4" height="334" fill="url(#paint10_linear_104_20)"/>
<rect y="230" width="5" height="334" transform="rotate(-90 0 230)" fill="url(#paint11_linear_104_20)"/>
<rect x="291" width="4" height="334" fill="url(#paint12_linear_104_20)"/>
<rect y="59" width="4" height="334" transform="rotate(-90 0 59)" fill="url(#paint13_linear_104_20)"/>
<rect x="154" width="4" height="334" fill="url(#paint14_linear_104_20)"/>
<rect y="196" width="5" height="334" transform="rotate(-90 0 196)" fill="url(#paint15_linear_104_20)"/>
<defs>
<linearGradient id="paint0_linear_104_20" x1="190" y1="0" x2="190" y2="334" gradientUnits="userSpaceOnUse">
<stop stop-opacity="0"/>
<stop offset="0.48" stop-color="#130707"/>
<stop offset="1" stop-opacity="0"/>
</linearGradient>
<linearGradient id="paint1_linear_104_20" x1="2" y1="161" x2="2" y2="495" gradientUnits="userSpaceOnUse">
<stop stop-opacity="0"/>
<stop offset="0.48" stop-color="#130707"/>
<stop offset="1" stop-opacity="0"/>
</linearGradient>
<linearGradient id="paint2_linear_104_20" x1="54" y1="0" x2="54" y2="334" gradientUnits="userSpaceOnUse">
<stop stop-opacity="0"/>
<stop offset="0.48" stop-color="#130707"/>
<stop offset="1" stop-opacity="0"/>
</linearGradient>
<linearGradient id="paint3_linear_104_20" x1="2" y1="298" x2="2" y2="632" gradientUnits="userSpaceOnUse">
<stop stop-opacity="0"/>
<stop offset="0.48" stop-color="#130707"/>
<stop offset="1" stop-opacity="0"/>
</linearGradient>
<linearGradient id="paint4_linear_104_20" x1="224.5" y1="0" x2="224.5" y2="334" gradientUnits="userSpaceOnUse">
<stop stop-opacity="0"/>
<stop offset="0.48" stop-color="#130707"/>
<stop offset="1" stop-opacity="0"/>
</linearGradient>
<linearGradient id="paint5_linear_104_20" x1="2" y1="127" x2="2" y2="461" gradientUnits="userSpaceOnUse">
<stop stop-opacity="0"/>
<stop offset="0.48" stop-color="#130707"/>
<stop offset="1" stop-opacity="0"/>
</linearGradient>
<linearGradient id="paint6_linear_104_20" x1="88" y1="0" x2="88" y2="334" gradientUnits="userSpaceOnUse">
<stop stop-opacity="0"/>
<stop offset="0.48" stop-color="#130707"/>
<stop offset="1" stop-opacity="0"/>
</linearGradient>
<linearGradient id="paint7_linear_104_20" x1="2" y1="264" x2="2" y2="598" gradientUnits="userSpaceOnUse">
<stop stop-opacity="0"/>
<stop offset="0.48" stop-color="#130707"/>
<stop offset="1" stop-opacity="0"/>
</linearGradient>
<linearGradient id="paint8_linear_104_20" x1="258.5" y1="0" x2="258.5" y2="334" gradientUnits="userSpaceOnUse">
<stop stop-opacity="0"/>
<stop offset="0.48" stop-color="#130707"/>
<stop offset="1" stop-opacity="0"/>
</linearGradient>
<linearGradient id="paint9_linear_104_20" x1="2" y1="93" x2="2" y2="427" gradientUnits="userSpaceOnUse">
<stop stop-opacity="0"/>
<stop offset="0.48" stop-color="#130707"/>
<stop offset="1" stop-opacity="0"/>
</linearGradient>
<linearGradient id="paint10_linear_104_20" x1="122" y1="0" x2="122" y2="334" gradientUnits="userSpaceOnUse">
<stop stop-opacity="0"/>
<stop offset="0.48" stop-color="#130707"/>
<stop offset="1" stop-opacity="0"/>
</linearGradient>
<linearGradient id="paint11_linear_104_20" x1="2.5" y1="230" x2="2.5" y2="564" gradientUnits="userSpaceOnUse">
<stop stop-opacity="0"/>
<stop offset="0.48" stop-color="#130707"/>
<stop offset="1" stop-opacity="0"/>
</linearGradient>
<linearGradient id="paint12_linear_104_20" x1="293" y1="0" x2="293" y2="334" gradientUnits="userSpaceOnUse">
<stop stop-opacity="0"/>
<stop offset="0.48" stop-color="#130707"/>
<stop offset="1" stop-opacity="0"/>
</linearGradient>
<linearGradient id="paint13_linear_104_20" x1="2" y1="59" x2="2" y2="393" gradientUnits="userSpaceOnUse">
<stop stop-opacity="0"/>
<stop offset="0.48" stop-color="#130707"/>
<stop offset="1" stop-opacity="0"/>
</linearGradient>
<linearGradient id="paint14_linear_104_20" x1="156" y1="0" x2="156" y2="334" gradientUnits="userSpaceOnUse">
<stop stop-opacity="0"/>
<stop offset="0.48" stop-color="#130707"/>
<stop offset="1" stop-opacity="0"/>
</linearGradient>
<linearGradient id="paint15_linear_104_20" x1="2.5" y1="196" x2="2.5" y2="530" gradientUnits="userSpaceOnUse">
<stop stop-opacity="0"/>
<stop offset="0.48" stop-color="#130707"/>
<stop offset="1" stop-opacity="0"/>
</linearGradient>
</defs>
</svg>
