<svg width="256" height="256" viewBox="0 0 256 256" fill="none" xmlns="http://www.w3.org/2000/svg">
<path d="M226.61 196.447L194.084 161.66C190.04 157.338 183.687 157.053 179.286 160.716L168.007 148.653C177.547 137.413 182.827 123.029 182.827 107.744C182.827 91.4494 176.892 76.1282 166.119 64.6058C155.345 53.0833 141.023 46.7391 125.787 46.7391C110.551 46.7391 96.2257 53.0833 85.4522 64.6058C74.6786 76.1282 68.7467 91.4464 68.7467 107.744C68.7467 124.039 74.6786 139.357 85.4522 150.88C96.2257 162.402 110.551 168.749 125.787 168.749C140.079 168.749 153.527 163.102 164.037 152.899L175.313 164.96C173.787 167.051 172.919 169.591 172.919 172.296C172.919 175.511 174.082 178.529 176.198 180.789L208.721 215.575C210.91 217.917 213.788 219.089 216.662 219.089C219.534 219.089 222.412 217.917 224.601 215.575L226.61 213.427C230.988 208.747 230.988 201.129 226.61 196.447ZM89.4227 146.63C79.7113 136.244 74.3639 122.434 74.3639 107.744C74.3639 93.0542 79.7113 79.2447 89.4227 68.8583C99.1369 58.4719 112.049 52.7528 125.784 52.7528C139.519 52.7528 152.431 58.4719 162.143 68.8583C171.854 79.2447 177.204 93.0572 177.204 107.744C177.204 122.431 171.854 136.244 162.143 146.63C152.431 157.017 139.519 162.739 125.784 162.739C112.049 162.739 99.1369 157.02 89.4227 146.63ZM222.634 209.183L220.624 211.332C218.517 213.589 214.799 213.583 212.692 211.332L180.169 176.545C179.115 175.418 178.536 173.913 178.536 172.302C178.536 170.694 179.115 169.188 180.169 168.061L182.178 165.912C183.232 164.785 184.64 164.166 186.143 164.166C187.649 164.166 189.057 164.785 190.111 165.912L222.634 200.696C224.823 203.034 224.823 206.845 222.634 209.183Z" fill="black"/>
<path d="M88.3043 128.932C87.4528 128.932 86.6127 128.52 86.0619 127.742C85.1262 126.419 85.3678 124.532 86.607 123.531L138.297 81.6971C138.932 81.1832 139.747 80.9788 140.517 81.1411C141.295 81.3004 141.978 81.8023 142.391 82.5265L158.832 111.345L164.888 106.689C166.15 105.716 167.906 106.028 168.811 107.378C169.716 108.724 169.429 110.602 168.167 111.573L159.65 118.119C159.012 118.606 158.211 118.795 157.453 118.624C156.686 118.458 156.017 117.956 155.612 117.244L139.21 88.4951L89.9959 128.322C89.4901 128.733 88.8944 128.932 88.3043 128.932Z" fill="black"/>
<path d="M239.963 23H12.9372C5.80265 23 0 29.206 0 36.8335V177.047C0 184.675 5.80265 190.884 12.9372 190.884H100.812V227.05H65.1611C63.61 227.05 62.3511 228.393 62.3511 230.055C62.3511 231.717 63.61 233.06 65.1611 233.06H187.736C189.29 233.06 190.546 231.717 190.546 230.055C190.546 228.393 189.29 227.05 187.736 227.05H152.088V190.884H164.129C165.683 190.884 166.939 189.54 166.939 187.878C166.939 186.216 165.683 184.873 164.129 184.873H12.9372C8.90208 184.873 5.62 181.363 5.62 177.05V150.27L35.1025 126.861L51.4118 155.412C51.8248 156.136 52.5077 156.638 53.286 156.797C53.4602 156.833 53.6345 156.851 53.8087 156.851C54.4156 156.851 55.0114 156.641 55.5059 156.244L66.8583 147.054C68.0947 146.05 68.3392 144.166 67.4035 142.843C66.4677 141.521 64.7059 141.263 63.4667 142.26L54.5899 149.449L38.2947 120.926C37.8844 120.204 37.2072 119.702 36.4316 119.543C35.6561 119.375 34.8524 119.576 34.2202 120.081L5.62 142.783V36.8335C5.62 32.5179 8.90208 29.0077 12.9372 29.0077H239.966C244.001 29.0077 247.283 32.5179 247.283 36.8335V43.3761L189.813 87.5334C188.554 88.5011 188.264 90.3795 189.169 91.7289C189.717 92.5463 190.58 92.9821 191.454 92.9821C192.021 92.9821 192.595 92.7988 193.089 92.4171L247.28 50.7783V177.05C247.28 181.366 243.998 184.876 239.963 184.876H235.054C233.5 184.876 232.244 186.219 232.244 187.881C232.244 189.543 233.5 190.887 235.054 190.887H239.963C247.095 190.887 252.9 184.681 252.9 177.05V36.8335C252.9 29.206 247.097 23 239.963 23ZM146.468 227.05H106.432V190.884H146.468V227.05Z" fill="black"/>
</svg>
