<svg width="522" height="554" viewBox="0 0 522 554" fill="none" xmlns="http://www.w3.org/2000/svg">
<path d="M138.834 440.568C105.334 560.568 300.334 591.074 327.834 500.568C367.335 370.568 474.834 466.568 485.334 373.568C489.025 340.878 451.834 314.568 434.834 266.068C417.834 217.568 494.834 202.068 519.834 121.068C529.09 91.0793 495.834 37.0681 468.334 19.568C419.334 -11.6138 317.334 -9.93192 300.334 57.0681C287.62 107.176 293.334 241.068 174.335 137.068C63.6482 40.3337 -39.2075 219.343 14.8347 291.568C68.3345 363.068 182.843 282.925 138.834 440.568Z" fill="url(#paint0_linear_102_3)" fill-opacity="0.12"/>
<defs>
<linearGradient id="paint0_linear_102_3" x1="369.834" y1="212.568" x2="12.8345" y2="520.568" gradientUnits="userSpaceOnUse">
<stop stop-color="#3192C7" stop-opacity="0"/>
<stop offset="0.52" stop-color="#3192C7"/>
<stop offset="0.993378" stop-color="#184761"/>
</linearGradient>
</defs>
</svg>
