<svg xmlns="http://www.w3.org/2000/svg" xmlns:xlink="http://www.w3.org/1999/xlink" viewBox="0 0 822.6 556.48"><defs><style>.cls-1,.cls-51,.cls-56,.cls-58{fill:none;}.cls-2{isolation:isolate;}.cls-3{fill:url(#linear-gradient);}.cls-4{clip-path:url(#clip-path);}.cls-5{mix-blend-mode:color-dodge;fill:url(#radial-gradient);}.cls-6{fill:url(#linear-gradient-2);}.cls-7{fill:url(#linear-gradient-3);}.cls-8{fill:url(#linear-gradient-4);}.cls-9{fill:url(#linear-gradient-5);}.cls-10{fill:url(#linear-gradient-6);}.cls-11{fill:url(#linear-gradient-7);}.cls-12{fill:url(#linear-gradient-8);}.cls-13,.cls-15{fill:#fff;}.cls-13,.cls-99{mix-blend-mode:overlay;}.cls-14{fill:#fcfcfa;}.cls-16{fill:url(#linear-gradient-9);}.cls-17{fill:url(#linear-gradient-10);}.cls-18{fill:url(#linear-gradient-11);}.cls-19{fill:url(#linear-gradient-12);}.cls-20{fill:url(#linear-gradient-13);}.cls-21{fill:url(#linear-gradient-14);}.cls-22{fill:url(#linear-gradient-15);}.cls-23{fill:#bbe4ff;}.cls-24{fill:#0096ea;}.cls-25{fill:#080749;}.cls-26{fill:#f1bf9c;}.cls-27{fill:url(#linear-gradient-16);}.cls-28{fill:url(#linear-gradient-17);}.cls-29{fill:#070644;}.cls-30{fill:url(#linear-gradient-18);}.cls-31{fill:#191968;}.cls-32,.cls-33,.cls-69,.cls-84,.cls-85,.cls-94{opacity:0.33;}.cls-32{fill:url(#linear-gradient-19);}.cls-33{fill:url(#linear-gradient-20);}.cls-34{fill:#150b6d;}.cls-35{fill:url(#linear-gradient-21);}.cls-36{fill:url(#linear-gradient-22);}.cls-37{fill:url(#linear-gradient-23);}.cls-38{fill:url(#linear-gradient-24);}.cls-39{fill:url(#linear-gradient-25);}.cls-40{fill:url(#linear-gradient-26);}.cls-41{fill:url(#linear-gradient-27);}.cls-42{fill:url(#linear-gradient-28);}.cls-43{fill:url(#linear-gradient-29);}.cls-44{fill:url(#linear-gradient-30);}.cls-45{fill:url(#linear-gradient-31);}.cls-46{fill:url(#linear-gradient-32);}.cls-47{fill:url(#linear-gradient-33);}.cls-48{fill:url(#linear-gradient-34);}.cls-49{fill:url(#linear-gradient-35);}.cls-50{fill:url(#linear-gradient-36);}.cls-51,.cls-56,.cls-58{stroke-linecap:round;}.cls-51,.cls-56{stroke-linejoin:round;}.cls-51{stroke-dasharray:2.01 4.02;stroke:url(#linear-gradient-37);}.cls-52{fill:url(#linear-gradient-38);}.cls-53{fill:url(#linear-gradient-39);}.cls-54{fill:url(#linear-gradient-40);}.cls-55{fill:url(#linear-gradient-41);}.cls-56{stroke-dasharray:1.99 3.98;stroke:url(#linear-gradient-42);}.cls-57{fill:url(#linear-gradient-43);}.cls-58{stroke:#fff;stroke-miterlimit:10;stroke-width:0.72px;}.cls-59{fill:url(#linear-gradient-44);}.cls-60{fill:url(#linear-gradient-45);}.cls-61{fill:url(#linear-gradient-46);}.cls-62{fill:url(#linear-gradient-47);}.cls-63{fill:url(#linear-gradient-48);}.cls-64{fill:url(#linear-gradient-49);}.cls-65{fill:url(#linear-gradient-50);}.cls-66{fill:url(#linear-gradient-51);}.cls-67{fill:#ffd1a4;}.cls-68{fill:#f2ba88;}.cls-69{fill:url(#linear-gradient-52);}.cls-70{fill:#f6f9ff;}.cls-71{fill:url(#linear-gradient-53);}.cls-72{fill:#fffff9;}.cls-73{fill:url(#linear-gradient-54);}.cls-74{fill:#100942;}.cls-75{fill:#301da0;}.cls-76{fill:url(#linear-gradient-55);}.cls-77{fill:url(#linear-gradient-56);}.cls-78{fill:url(#linear-gradient-57);}.cls-79{fill:url(#linear-gradient-58);}.cls-80{fill:url(#linear-gradient-59);}.cls-81{fill:url(#linear-gradient-60);}.cls-82{fill:url(#linear-gradient-61);}.cls-83{fill:#f4ccb0;}.cls-84{fill:url(#linear-gradient-62);}.cls-85{fill:url(#linear-gradient-63);}.cls-86{fill:url(#linear-gradient-64);}.cls-87{fill:#e3edfd;}.cls-88{fill:url(#linear-gradient-65);}.cls-89{fill:#afe1ff;}.cls-90{mix-blend-mode:multiply;opacity:0.95;fill:url(#linear-gradient-66);}.cls-91{fill:url(#linear-gradient-67);}.cls-92{fill:url(#linear-gradient-68);}.cls-93{fill:#300e70;}.cls-94{fill:url(#linear-gradient-69);}.cls-95{fill:url(#linear-gradient-70);}.cls-96{fill:url(#linear-gradient-71);}.cls-97{fill:url(#linear-gradient-72);}.cls-98{mix-blend-mode:screen;opacity:0.8;fill:url(#linear-gradient-73);}.cls-100,.cls-101,.cls-113{opacity:0.5;}.cls-100{fill:url(#linear-gradient-74);}.cls-101{fill:url(#linear-gradient-75);}.cls-102{fill:url(#linear-gradient-76);}.cls-103,.cls-104,.cls-105,.cls-106{opacity:0.3;}.cls-103{fill:url(#linear-gradient-77);}.cls-104{fill:url(#linear-gradient-78);}.cls-105{fill:url(#linear-gradient-79);}.cls-106{fill:url(#linear-gradient-80);}.cls-107{fill:url(#linear-gradient-81);}.cls-108{fill:url(#linear-gradient-82);}.cls-109{fill:url(#linear-gradient-83);}.cls-110{fill:url(#linear-gradient-84);}.cls-111{fill:url(#linear-gradient-85);}.cls-112{fill:url(#linear-gradient-86);}.cls-113{fill:url(#linear-gradient-87);}.cls-114{fill:url(#linear-gradient-88);}</style><linearGradient id="linear-gradient" x1="137.49" y1="-58.89" x2="761.47" y2="562.63" gradientUnits="userSpaceOnUse"><stop offset="0" stop-color="#a100f9"/><stop offset="1" stop-color="#000083"/></linearGradient><clipPath id="clip-path"><rect class="cls-1" x="72.6" width="750" height="500"/></clipPath><radialGradient id="radial-gradient" cx="407.31" cy="320.61" r="276.44" gradientTransform="matrix(1, 0.05, 0, 0.61, 0, 103.38)" gradientUnits="userSpaceOnUse"><stop offset="0" stop-color="#00bfd8"/><stop offset="0.15" stop-color="#00bfd8" stop-opacity="0.98"/><stop offset="0.29" stop-color="#00bfd8" stop-opacity="0.93"/><stop offset="0.42" stop-color="#00bfd8" stop-opacity="0.85"/><stop offset="0.55" stop-color="#00bfd8" stop-opacity="0.73"/><stop offset="0.68" stop-color="#00bfd8" stop-opacity="0.57"/><stop offset="0.8" stop-color="#00bfd8" stop-opacity="0.38"/><stop offset="0.92" stop-color="#00bfd8" stop-opacity="0.16"/><stop offset="1" stop-color="#00bfd8" stop-opacity="0"/></radialGradient><linearGradient id="linear-gradient-2" x1="306.94" y1="230.41" x2="609.52" y2="230.41" gradientUnits="userSpaceOnUse"><stop offset="0" stop-color="#70ffff"/><stop offset="0.7" stop-color="#22fffb"/><stop offset="1" stop-color="#00fff9"/></linearGradient><linearGradient id="linear-gradient-3" x1="322.79" y1="42.71" x2="594.12" y2="434.05" gradientUnits="userSpaceOnUse"><stop offset="0" stop-color="#00a7ff"/><stop offset="0.58" stop-color="#005afc"/><stop offset="1" stop-color="#001ef9"/></linearGradient><linearGradient id="linear-gradient-4" x1="304.59" y1="129.72" x2="603.76" y2="129.72" gradientUnits="userSpaceOnUse"><stop offset="0" stop-color="#004cff"/><stop offset="0.78" stop-color="#0029b1"/><stop offset="1" stop-color="#001e9a"/></linearGradient><linearGradient id="linear-gradient-5" x1="605.08" y1="229.34" x2="559.52" y2="194.05" gradientUnits="userSpaceOnUse"><stop offset="0" stop-color="#06c9fd"/><stop offset="0.67" stop-color="#b0eefe"/><stop offset="1" stop-color="#fff"/></linearGradient><linearGradient id="linear-gradient-6" x1="606.04" y1="228.09" x2="560.48" y2="192.81" xlink:href="#linear-gradient-5"/><linearGradient id="linear-gradient-7" x1="607.01" y1="226.85" x2="561.44" y2="191.57" xlink:href="#linear-gradient-5"/><linearGradient id="linear-gradient-8" x1="451.7" y1="257.89" x2="397.49" y2="180.06" gradientUnits="userSpaceOnUse"><stop offset="0" stop-color="#00a7e5"/><stop offset="1" stop-color="#06c9fd"/></linearGradient><linearGradient id="linear-gradient-9" x1="315.98" y1="125.48" x2="376.33" y2="181.93" gradientTransform="matrix(1, 0.05, 0, 1, 0, -26.31)" gradientUnits="userSpaceOnUse"><stop offset="0" stop-color="#06c9fd"/><stop offset="0.25" stop-color="#04aef1"/><stop offset="1" stop-color="#0060d0"/></linearGradient><linearGradient id="linear-gradient-10" x1="318.43" y1="122.87" x2="378.77" y2="179.32" xlink:href="#linear-gradient-9"/><linearGradient id="linear-gradient-11" x1="334.3" y1="105.9" x2="394.65" y2="162.35" xlink:href="#linear-gradient-9"/><linearGradient id="linear-gradient-12" x1="250.02" y1="196.02" x2="250.02" y2="145.61" xlink:href="#linear-gradient-5"/><linearGradient id="linear-gradient-13" x1="267.69" y1="161.22" x2="253.79" y2="150.46" xlink:href="#linear-gradient-5"/><linearGradient id="linear-gradient-14" x1="267.98" y1="160.85" x2="254.08" y2="150.08" xlink:href="#linear-gradient-5"/><linearGradient id="linear-gradient-15" x1="268.28" y1="160.47" x2="254.38" y2="149.7" xlink:href="#linear-gradient-5"/><linearGradient id="linear-gradient-16" x1="315.96" y1="231.29" x2="326.9" y2="235.11" gradientUnits="userSpaceOnUse"><stop offset="0" stop-color="#170960"/><stop offset="1" stop-color="#24188b"/></linearGradient><linearGradient id="linear-gradient-17" x1="328.32" y1="213.89" x2="346.45" y2="216.61" xlink:href="#linear-gradient-16"/><linearGradient id="linear-gradient-18" x1="320.82" y1="242.19" x2="338.95" y2="244.91" gradientTransform="matrix(0.99, 0.1, -0.1, 0.99, 27.04, -31.11)" xlink:href="#linear-gradient-16"/><linearGradient id="linear-gradient-19" x1="337.76" y1="185.33" x2="344.13" y2="185.33" gradientUnits="userSpaceOnUse"><stop offset="0" stop-color="#00a7e5"/><stop offset="0.36" stop-color="#02b3ed" stop-opacity="0.66"/><stop offset="1" stop-color="#06c9fd" stop-opacity="0"/></linearGradient><linearGradient id="linear-gradient-20" x1="329.38" y1="160.32" x2="337.85" y2="160.32" xlink:href="#linear-gradient-19"/><linearGradient id="linear-gradient-21" x1="617.63" y1="265.16" x2="636.93" y2="289.28" gradientUnits="userSpaceOnUse"><stop offset="0" stop-color="#00fff9"/><stop offset="0.41" stop-color="#39fffc"/><stop offset="1" stop-color="#86ffff"/></linearGradient><linearGradient id="linear-gradient-22" x1="639.92" y1="-227.17" x2="662.66" y2="-227.17" gradientTransform="matrix(1, 1.25, 0, 1, 0, -301.93)" xlink:href="#linear-gradient-21"/><linearGradient id="linear-gradient-23" x1="639.92" y1="-222.23" x2="662.66" y2="-222.23" gradientTransform="matrix(1, 1.25, 0, 1, 0, -301.93)" xlink:href="#linear-gradient-21"/><linearGradient id="linear-gradient-24" x1="639.92" y1="-217.29" x2="662.66" y2="-217.29" gradientTransform="matrix(1, 1.25, 0, 1, 0, -301.93)" xlink:href="#linear-gradient-21"/><linearGradient id="linear-gradient-25" x1="639.92" y1="-208.74" x2="651.06" y2="-208.74" gradientTransform="matrix(1, 1.25, 0, 1, 0, -301.93)" xlink:href="#linear-gradient-21"/><linearGradient id="linear-gradient-26" x1="630.98" y1="234.42" x2="623.08" y2="220.66" gradientTransform="matrix(1, 0.62, 0, 1, 0, -311.94)" xlink:href="#linear-gradient-21"/><linearGradient id="linear-gradient-27" x1="617.63" y1="295.97" x2="636.93" y2="320.09" xlink:href="#linear-gradient-21"/><linearGradient id="linear-gradient-28" x1="639.92" y1="-196.36" x2="662.66" y2="-196.36" gradientTransform="matrix(1, 1.25, 0, 1, 0, -301.93)" xlink:href="#linear-gradient-21"/><linearGradient id="linear-gradient-29" x1="639.92" y1="-191.42" x2="662.66" y2="-191.42" gradientTransform="matrix(1, 1.25, 0, 1, 0, -301.93)" xlink:href="#linear-gradient-21"/><linearGradient id="linear-gradient-30" x1="639.92" y1="-186.48" x2="662.66" y2="-186.48" gradientTransform="matrix(1, 1.25, 0, 1, 0, -301.93)" xlink:href="#linear-gradient-21"/><linearGradient id="linear-gradient-31" x1="639.92" y1="-177.93" x2="651.06" y2="-177.93" gradientTransform="matrix(1, 1.25, 0, 1, 0, -301.93)" xlink:href="#linear-gradient-21"/><linearGradient id="linear-gradient-32" x1="617.63" y1="326.78" x2="636.93" y2="350.9" xlink:href="#linear-gradient-21"/><linearGradient id="linear-gradient-33" x1="639.92" y1="-165.55" x2="662.66" y2="-165.55" gradientTransform="matrix(1, 1.25, 0, 1, 0, -301.93)" xlink:href="#linear-gradient-21"/><linearGradient id="linear-gradient-34" x1="639.92" y1="-160.61" x2="662.66" y2="-160.61" gradientTransform="matrix(1, 1.25, 0, 1, 0, -301.93)" xlink:href="#linear-gradient-21"/><linearGradient id="linear-gradient-35" x1="639.92" y1="-155.67" x2="662.66" y2="-155.67" gradientTransform="matrix(1, 1.25, 0, 1, 0, -301.93)" xlink:href="#linear-gradient-21"/><linearGradient id="linear-gradient-36" x1="639.92" y1="-147.12" x2="651.06" y2="-147.12" gradientTransform="matrix(1, 1.25, 0, 1, 0, -301.93)" xlink:href="#linear-gradient-21"/><linearGradient id="linear-gradient-37" x1="468.51" y1="257.33" x2="579.95" y2="257.33" gradientUnits="userSpaceOnUse"><stop offset="0" stop-color="#fff"/><stop offset="1" stop-color="#fff"/></linearGradient><linearGradient id="linear-gradient-38" x1="545.05" y1="270.06" x2="503.05" y2="218.06" gradientUnits="userSpaceOnUse"><stop offset="0" stop-color="#069afd"/><stop offset="0.22" stop-color="#05b1fd"/><stop offset="1" stop-color="aqua"/></linearGradient><linearGradient id="linear-gradient-39" x1="482.98" y1="295.52" x2="565.48" y2="295.52" gradientTransform="matrix(1, 0.63, 0, 1, 0, -342.12)" xlink:href="#linear-gradient-37"/><linearGradient id="linear-gradient-40" x1="482.98" y1="303.24" x2="565.48" y2="303.24" gradientTransform="matrix(1, 0.63, 0, 1, 0, -342.12)" xlink:href="#linear-gradient-37"/><linearGradient id="linear-gradient-41" x1="482.98" y1="311" x2="529.49" y2="311" gradientTransform="matrix(1, 0.63, 0, 1, 0, -342.12)" xlink:href="#linear-gradient-37"/><linearGradient id="linear-gradient-42" x1="391.95" y1="311.43" x2="528.15" y2="311.43" xlink:href="#linear-gradient-37"/><linearGradient id="linear-gradient-43" x1="432" y1="168.8" x2="480.93" y2="168.8" gradientTransform="matrix(1, 0.06, 0, 1, 0, -26.32)" xlink:href="#linear-gradient-9"/><linearGradient id="linear-gradient-44" x1="437.88" y1="146.05" x2="445.76" y2="156.8" gradientTransform="matrix(1, 0.06, 0, 1, 0, -24.93)" gradientUnits="userSpaceOnUse"><stop offset="0" stop-color="#06d8fd"/><stop offset="0.34" stop-color="#04aeed"/><stop offset="1" stop-color="#0060d0"/></linearGradient><linearGradient id="linear-gradient-45" x1="436.24" y1="147.26" x2="444.11" y2="158.01" xlink:href="#linear-gradient-44"/><linearGradient id="linear-gradient-46" x1="456.16" y1="152.07" x2="480.44" y2="188.6" xlink:href="#linear-gradient-44"/><linearGradient id="linear-gradient-47" x1="454.15" y1="153.4" x2="478.42" y2="189.94" xlink:href="#linear-gradient-44"/><linearGradient id="linear-gradient-48" x1="452.14" y1="154.74" x2="476.41" y2="191.28" xlink:href="#linear-gradient-44"/><linearGradient id="linear-gradient-49" x1="450.12" y1="156.08" x2="474.4" y2="192.62" xlink:href="#linear-gradient-44"/><linearGradient id="linear-gradient-50" x1="448.11" y1="157.42" x2="472.38" y2="193.96" xlink:href="#linear-gradient-44"/><linearGradient id="linear-gradient-51" x1="446.09" y1="158.76" x2="470.37" y2="195.29" xlink:href="#linear-gradient-44"/><linearGradient id="linear-gradient-52" x1="435.31" y1="108.71" x2="461.39" y2="108.71" xlink:href="#linear-gradient-19"/><linearGradient id="linear-gradient-53" x1="536.39" y1="372.08" x2="573.61" y2="372.08" gradientUnits="userSpaceOnUse"><stop offset="0" stop-color="#069afd"/><stop offset="1" stop-color="#0061ff"/></linearGradient><linearGradient id="linear-gradient-54" x1="363.82" y1="365.33" x2="401.7" y2="365.33" xlink:href="#linear-gradient-16"/><linearGradient id="linear-gradient-55" x1="395.34" y1="297.23" x2="424.52" y2="297.23" xlink:href="#linear-gradient-16"/><linearGradient id="linear-gradient-56" x1="374.74" y1="293.5" x2="395.34" y2="293.5" gradientUnits="userSpaceOnUse"><stop offset="0" stop-color="#ffd30e"/><stop offset="0.39" stop-color="#ffad08"/><stop offset="0.78" stop-color="#ff8d02"/><stop offset="1" stop-color="#ff8100"/></linearGradient><linearGradient id="linear-gradient-57" x1="405.15" y1="278.7" x2="405.04" y2="300.37" gradientUnits="userSpaceOnUse"><stop offset="0" stop-color="#00fff9"/><stop offset="0.5" stop-color="#00aee3"/><stop offset="1" stop-color="#0060ce"/></linearGradient><linearGradient id="linear-gradient-58" x1="387.5" y1="269.91" x2="396.3" y2="293.23" xlink:href="#linear-gradient-57"/><linearGradient id="linear-gradient-59" x1="403.83" y1="296.56" x2="411.58" y2="310.83" xlink:href="#linear-gradient-57"/><linearGradient id="linear-gradient-60" x1="403.91" y1="311.72" x2="424.52" y2="311.72" xlink:href="#linear-gradient-53"/><linearGradient id="linear-gradient-61" x1="374.73" y1="307.99" x2="403.91" y2="307.99" xlink:href="#linear-gradient-53"/><linearGradient id="linear-gradient-62" x1="380.4" y1="277.18" x2="389.85" y2="277.18" xlink:href="#linear-gradient-19"/><linearGradient id="linear-gradient-63" x1="391.35" y1="306.59" x2="399.94" y2="306.59" xlink:href="#linear-gradient-19"/><linearGradient id="linear-gradient-64" x1="233.21" y1="82.76" x2="253.85" y2="82.76" gradientUnits="userSpaceOnUse"><stop offset="0" stop-color="#3660cd"/><stop offset="1" stop-color="#1627f9"/></linearGradient><linearGradient id="linear-gradient-65" x1="232.83" y1="167.23" x2="267.2" y2="167.23" xlink:href="#linear-gradient-21"/><linearGradient id="linear-gradient-66" x1="433.52" y1="400.6" x2="441.12" y2="400.6" xlink:href="#linear-gradient-19"/><linearGradient id="linear-gradient-67" x1="439.86" y1="348.7" x2="481.91" y2="348.7" xlink:href="#linear-gradient-53"/><linearGradient id="linear-gradient-68" x1="441.92" y1="348.7" x2="479.85" y2="348.7" xlink:href="#linear-gradient-38"/><linearGradient id="linear-gradient-69" x1="443.07" y1="361.66" x2="450.81" y2="361.66" xlink:href="#linear-gradient-19"/><linearGradient id="linear-gradient-70" x1="442.1" y1="469.75" x2="447.64" y2="469.75" xlink:href="#linear-gradient-16"/><linearGradient id="linear-gradient-71" x1="431.21" y1="465.29" x2="436.75" y2="465.29" xlink:href="#linear-gradient-16"/><linearGradient id="linear-gradient-72" x1="493.31" y1="114.8" x2="514.47" y2="145.1" gradientTransform="matrix(1, 0.05, 0, 1, 0, -28.17)" gradientUnits="userSpaceOnUse"><stop offset="0" stop-color="aqua"/><stop offset="1" stop-color="aqua"/></linearGradient><linearGradient id="linear-gradient-73" x1="520.16" y1="154.67" x2="581.11" y2="154.67" gradientTransform="matrix(1, 0.05, 0, 1, 0, -29.55)" gradientUnits="userSpaceOnUse"><stop offset="0" stop-color="#00eaff"/><stop offset="0.54" stop-color="#0089e6"/><stop offset="1" stop-color="#003bd2"/></linearGradient><linearGradient id="linear-gradient-74" x1="385.2" y1="53.23" x2="391.96" y2="62.91" xlink:href="#linear-gradient-72"/><linearGradient id="linear-gradient-75" x1="672.89" y1="223.92" x2="680.47" y2="234.77" xlink:href="#linear-gradient-72"/><linearGradient id="linear-gradient-76" x1="636.9" y1="211.55" x2="642.83" y2="220.04" xlink:href="#linear-gradient-72"/><linearGradient id="linear-gradient-77" x1="489.79" y1="75.28" x2="495.72" y2="83.77" xlink:href="#linear-gradient-72"/><linearGradient id="linear-gradient-78" x1="691.39" y1="299.22" x2="697.32" y2="307.71" xlink:href="#linear-gradient-72"/><linearGradient id="linear-gradient-79" x1="648.05" y1="412.18" x2="653.98" y2="420.67" xlink:href="#linear-gradient-72"/><linearGradient id="linear-gradient-80" x1="215.67" y1="176.32" x2="221.6" y2="184.81" xlink:href="#linear-gradient-72"/><linearGradient id="linear-gradient-81" x1="263.76" y1="74.96" x2="272.74" y2="87.82" xlink:href="#linear-gradient-72"/><linearGradient id="linear-gradient-82" x1="407.59" y1="60.36" x2="416.58" y2="73.22" xlink:href="#linear-gradient-72"/><linearGradient id="linear-gradient-83" x1="573.47" y1="96.56" x2="579.25" y2="104.83" xlink:href="#linear-gradient-72"/><linearGradient id="linear-gradient-84" x1="666.7" y1="185.08" x2="672.48" y2="193.35" xlink:href="#linear-gradient-72"/><linearGradient id="linear-gradient-85" x1="612.42" y1="175.38" x2="616.12" y2="180.67" xlink:href="#linear-gradient-72"/><linearGradient id="linear-gradient-86" x1="535.45" y1="115.83" x2="539.14" y2="121.12" xlink:href="#linear-gradient-72"/><linearGradient id="linear-gradient-87" x1="264.82" y1="254.17" x2="268.52" y2="259.46" xlink:href="#linear-gradient-72"/><linearGradient id="linear-gradient-88" x1="351.72" y1="91.07" x2="324.53" y2="68.03" xlink:href="#linear-gradient-4"/></defs><g class="cls-2"><g id="BACKGROUND"><rect class="cls-3" x="72.6" width="750" height="500"/></g><g id="OBJECTS"><g class="cls-4"><path class="cls-5" d="M810.73,341l3.49-1.84a.77.77,0,0,0,.3-1.06.83.83,0,0,0-1.09-.35L809.14,340,782,322.92l3.58-1.88a.77.77,0,0,0,.29-1.07.82.82,0,0,0-1.08-.35l-4.38,2.3-27.12-17.08L757,302.9a.76.76,0,0,0,.29-1.06.81.81,0,0,0-1.08-.35l-4.47,2.35-27.12-17.09,3.77-2a.77.77,0,0,0,.29-1.07.82.82,0,0,0-1.08-.35l-4.57,2.4-27.11-17.09,3.86-2a.77.77,0,0,0,.29-1.07.82.82,0,0,0-1.08-.35l-4.66,2.44-27.11-17.08,3.95-2.07a.79.79,0,0,0,.29-1.07.83.83,0,0,0-1.09-.35l-4.74,2.49-27.12-17.08,4-2.12a.78.78,0,0,0,.3-1.07.85.85,0,0,0-1.09-.35l-4.83,2.54-27.12-17.08,4.13-2.17a.77.77,0,0,0,.29-1.07.83.83,0,0,0-1.08-.35l-4.92,2.59-27.12-17.08,4.22-2.22a.77.77,0,0,0,.29-1.07.83.83,0,0,0-1.08-.35l-5,2.64-27.11-17.08,4.31-2.27a.78.78,0,0,0,.29-1.07.83.83,0,0,0-1.09-.34l-5.1,2.68-27.11-17.09,4.4-2.31a.78.78,0,0,0,.29-1.06.83.83,0,0,0-1.09-.35l-5.19,2.72L495,142.1l4.49-2.36a.77.77,0,0,0,.29-1.07.82.82,0,0,0-1.08-.34l-5.29,2.77L466.3,124l4.58-2.41a.76.76,0,0,0,.29-1.06.81.81,0,0,0-1.08-.35L464.71,123,437.6,105.94l4.67-2.45a.77.77,0,0,0,.29-1.07.82.82,0,0,0-1.08-.35L436,104.94,408.9,87.86l4.76-2.5a.77.77,0,0,0,.29-1.07.83.83,0,0,0-1.08-.35l-5.56,2.92-5.55-3.5a.78.78,0,0,0-1.09.23.84.84,0,0,0,.29,1.1l4.76,3-27.11,14.24-5.47-3.44a.76.76,0,0,0-1.08.23.82.82,0,0,0,.29,1.1l4.67,3L349.91,117l-5.38-3.39a.76.76,0,0,0-1.08.23.82.82,0,0,0,.29,1.1l4.58,2.89-27.11,14.24-5.29-3.33a.76.76,0,0,0-1.08.23.82.82,0,0,0,.29,1.1l4.49,2.83L292.5,147.15l-5.19-3.27a.79.79,0,0,0-1.09.23.84.84,0,0,0,.29,1.1l4.41,2.78L263.8,162.22,258.7,159a.79.79,0,0,0-1.09.23.83.83,0,0,0,.3,1.1l4.31,2.72L235.1,177.3l-5-3.16a.77.77,0,0,0-1.09.23.83.83,0,0,0,.29,1.1l4.22,2.66L206.4,192.37l-4.93-3.1a.76.76,0,0,0-1.08.23.82.82,0,0,0,.29,1.1l4.13,2.6-27.12,14.24-4.83-3a.76.76,0,0,0-1.08.23.82.82,0,0,0,.29,1.1l4,2.55L149,222.52l-4.74-3a.76.76,0,0,0-1.08.23.82.82,0,0,0,.29,1.1l3.95,2.49-27.12,14.24-4.65-2.93a.78.78,0,0,0-1.09.23.84.84,0,0,0,.29,1.1l3.86,2.43L91.59,252.66,87,249.79a.76.76,0,0,0-1.08.23.82.82,0,0,0,.29,1.1L90,253.5,62.88,267.74l-4.47-2.82a.77.77,0,0,0-1.08.23.82.82,0,0,0,.29,1.1l3.68,2.32L34.18,282.81l-4.38-2.76a.78.78,0,0,0-1.08.23.82.82,0,0,0,.29,1.1l3.58,2.26L5.48,297.88l-4.29-2.7a.77.77,0,0,0-1.08.23.82.82,0,0,0,.29,1.1l3.49,2.2L.4,300.55a.77.77,0,0,0-.29,1.07.82.82,0,0,0,.68.43.8.8,0,0,0,.4-.08l4.29-2.26L32.59,316.8,29,318.68a.77.77,0,0,0-.29,1.07.82.82,0,0,0,.68.43.78.78,0,0,0,.4-.08l4.38-2.3L61.3,334.88l-3.68,1.93a.77.77,0,0,0-.29,1.07.86.86,0,0,0,.69.43.77.77,0,0,0,.39-.09l4.47-2.34L90,353l-3.77,2a.77.77,0,0,0-.29,1.07.87.87,0,0,0,.69.43.68.68,0,0,0,.39-.09L91.59,354,118.7,371l-3.86,2a.78.78,0,0,0-.29,1.06.86.86,0,0,0,.69.44.81.81,0,0,0,.4-.09l4.65-2.44,27.11,17.08-3.94,2.07a.77.77,0,0,0-.29,1.07.82.82,0,0,0,.68.43.78.78,0,0,0,.4-.08l4.74-2.49,27.12,17.08-4,2.13a.76.76,0,0,0-.29,1.06.85.85,0,0,0,.68.44.78.78,0,0,0,.4-.09l4.83-2.54,27.12,17.09-4.13,2.16a.77.77,0,0,0-.29,1.07.84.84,0,0,0,.69.43.76.76,0,0,0,.39-.08l4.92-2.58,27.12,17.08-4.22,2.21a.78.78,0,0,0-.29,1.07.85.85,0,0,0,.69.43.8.8,0,0,0,.4-.08l5-2.63,27.11,17.08-4.3,2.26a.78.78,0,0,0-.3,1.07.85.85,0,0,0,.69.43.8.8,0,0,0,.4-.08l5.1-2.68,27.12,17.08-4.4,2.31a.77.77,0,0,0-.29,1.07.83.83,0,0,0,.68.43.78.78,0,0,0,.4-.08l5.19-2.73,27.12,17.08L315.13,500a.77.77,0,0,0-.29,1.07.82.82,0,0,0,.68.43.7.7,0,0,0,.4-.09l5.28-2.77,27.12,17.08-4.58,2.41a.76.76,0,0,0-.29,1.06.85.85,0,0,0,.68.44.78.78,0,0,0,.4-.09l5.37-2.82L377,533.77l-4.67,2.46a.77.77,0,0,0-.29,1.07.86.86,0,0,0,.69.43.68.68,0,0,0,.39-.09l5.47-2.87,27.11,17.09-4.76,2.5a.77.77,0,0,0-.29,1.06.86.86,0,0,0,.69.44.81.81,0,0,0,.4-.09l5.55-2.91,5.55,3.49a.86.86,0,0,0,.4.13.76.76,0,0,0,.69-.36.84.84,0,0,0-.29-1.1l-4.76-3L436,537.78l5.47,3.45a.93.93,0,0,0,.39.12.74.74,0,0,0,.69-.36.82.82,0,0,0-.29-1.1L437.6,537l27.12-14.24,5.37,3.38a.82.82,0,0,0,.39.13.77.77,0,0,0,.69-.36.82.82,0,0,0-.29-1.1l-4.58-2.88,27.12-14.24L498.7,511a.82.82,0,0,0,.4.13.73.73,0,0,0,.68-.36.82.82,0,0,0-.29-1.1L495,506.8l27.12-14.24,5.19,3.28a1,1,0,0,0,.4.12.74.74,0,0,0,.69-.36.84.84,0,0,0-.29-1.1l-4.4-2.77,27.11-14.24,5.1,3.21a.86.86,0,0,0,.4.13.78.78,0,0,0,.69-.36.83.83,0,0,0-.29-1.1l-4.31-2.71,27.12-14.24,5,3.15a.82.82,0,0,0,.39.13.75.75,0,0,0,.69-.36.82.82,0,0,0-.29-1.1l-4.22-2.66,27.12-14.24,4.92,3.1a.82.82,0,0,0,.4.13.74.74,0,0,0,.68-.36.82.82,0,0,0-.29-1.1l-4.13-2.6,27.12-14.24,4.83,3.05a1,1,0,0,0,.4.12.74.74,0,0,0,.69-.36.83.83,0,0,0-.3-1.1l-4-2.54,27.12-14.24,4.74,3a.86.86,0,0,0,.4.13.76.76,0,0,0,.69-.36.84.84,0,0,0-.29-1.1l-3.95-2.49,27.11-14.24,4.65,2.93a.86.86,0,0,0,.4.13.76.76,0,0,0,.69-.36.84.84,0,0,0-.29-1.1l-3.86-2.43L723,387.05l4.57,2.88a.93.93,0,0,0,.39.12.74.74,0,0,0,.69-.36.82.82,0,0,0-.29-1.1l-3.77-2.37L751.74,372l4.47,2.81a.82.82,0,0,0,.39.13.77.77,0,0,0,.69-.36.82.82,0,0,0-.29-1.1l-3.67-2.32,27.11-14.23,4.38,2.75a.82.82,0,0,0,.4.13.74.74,0,0,0,.68-.36.82.82,0,0,0-.29-1.1L782,356.07l27.11-14.24,4.29,2.7a.86.86,0,0,0,.4.13.74.74,0,0,0,.69-.36.83.83,0,0,0-.3-1.1Zm-31.88-18.25L751.74,337l-27.12-17.08,27.12-14.24Zm-373.13-3L378.61,334l-27.12-17.08,27.12-14.24ZM380.2,301.86l27.11-14.24,27.12,17.08-27.12,14.24Zm27.11,18.91,27.12,17.09-27.12,14.23L380.2,335Zm1.59-.83L436,305.7l27.12,17.08L436,337Zm28.7-15.07,27.12-14.24,27.11,17.08L464.72,322Zm-1.59-1L408.9,286.78,436,272.54l27.12,17.09Zm-28.7-18.08L380.2,268.7l27.11-14.24,27.12,17.09Zm-1.59.83-27.11,14.24-27.12-17.08,27.12-14.24ZM377,301.69l-27.11,14.24-27.12-17.08,27.12-14.24Zm-28.7,15.07L321.21,331l-27.12-17.08,27.11-14.24Zm1.59,1L377,334.85l-27.11,14.24L322.79,332Zm28.7,18.09,27.11,17.08-27.11,14.24-27.12-17.08Zm28.7,18.08L434.43,371l-27.12,14.24L380.2,368.17Zm1.59-.84L436,338.85l27.12,17.09L436,370.18ZM437.6,338l27.12-14.24,27.11,17.08L464.71,355.1ZM466.3,323l27.12-14.24,27.11,17.08L493.42,340ZM495,307.87l27.11-14.23,27.11,17.08L522.12,325Zm-1.59-1L466.3,289.79l27.12-14.24,27.11,17.09Zm-28.7-18.08L437.6,271.71l27.11-14.24,27.12,17.09ZM436,270.71,408.9,253.63,436,239.39l27.12,17.08Zm-28.7-18.08L380.2,235.55l27.11-14.24,27.11,17.08Zm-1.59.83L378.61,267.7l-27.12-17.08,27.12-14.24ZM377,268.54l-27.11,14.24L322.79,265.7l27.12-14.25Zm-28.7,15.07L321.2,297.85l-27.11-17.08,27.11-14.24Zm-28.7,15.07L292.5,312.92l-27.11-17.08L292.5,281.6Zm-28.7,15.08L263.8,328l-27.12-17.09,27.12-14.24Zm1.58,1,27.12,17.08L292.5,346.08,265.38,329Zm28.71,18.08,27.11,17.08L321.2,364.16l-27.11-17.08Zm28.7,18.08L377,368l-27.11,14.24-27.12-17.08ZM378.61,369l27.11,17.08-27.11,14.24-27.12-17.08Zm28.7,18.08,27.12,17.08-27.12,14.25-27.12-17.09Zm1.59-.83L436,372l27.12,17.08L436,403.33Zm28.7-15.07,27.11-14.24L491.83,374l-27.11,14.24Zm28.7-15.08,27.12-14.24L520.53,359l-27.11,14.24ZM495,341l27.12-14.24,27.12,17.08-27.12,14.24ZM523.71,326l27.11-14.24,27.12,17.08L550.83,343Zm28.7-15.08,27.11-14.24,27.12,17.09L579.53,328Zm-1.59-1L523.71,292.8l27.11-14.24,27.12,17.08Zm-28.7-18.08L495,274.72l27.12-14.24,27.12,17.08Zm-28.7-18.08L466.3,256.64l27.12-14.24,27.11,17.08Zm-28.71-18.08L437.6,238.56l27.11-14.24,27.12,17.08ZM436,237.56,408.9,220.48,436,206.24l27.12,17.08Zm-28.7-18.08-27.12-17.09,27.12-14.24,27.12,17.09Zm-1.59.83-27.11,14.24-27.12-17.08,27.12-14.24ZM377,235.38l-27.11,14.24-27.12-17.08,27.12-14.24Zm-28.7,15.08L321.2,264.7l-27.11-17.09,27.11-14.24Zm-28.7,15.07L292.5,279.77l-27.11-17.08,27.11-14.24Zm-28.7,15.07L263.8,294.84l-27.12-17.08,27.12-14.24Zm-28.71,15.07L235.1,309.92,208,292.83l27.12-14.24Zm-28.7,15.08L206.39,325l-27.11-17.08,27.11-14.24Zm1.59,1,27.11,17.08L235.1,343.07,208,326Zm28.7,18.08,27.11,17.08L263.8,361.15l-27.12-17.08Zm28.7,18.08L319.62,365,292.5,379.23l-27.11-17.08ZM321.2,366l27.12,17.08L321.2,397.31l-27.11-17.08Zm28.71,18.08L377,401.16,349.91,415.4l-27.12-17.09Zm28.7,18.09,27.11,17.08-27.11,14.24L351.49,416.4Zm28.7,18.08,27.11,17.08-27.11,14.24L380.2,434.48Zm1.59-.84L436,405.16l27.11,17.08L436,436.49Zm28.7-15.07,27.12-14.24,27.11,17.08-27.11,14.24Zm28.7-15.07L493.42,375l27.11,17.08-27.11,14.24ZM495,374.19,522.12,360,549.23,377l-27.11,14.24Zm28.7-15.08,27.12-14.24L577.94,362l-27.12,14.24ZM552.41,344l27.12-14.24,27.11,17.08-27.11,14.24ZM581.11,329l27.12-14.24,27.11,17.08-27.11,14.24Zm28.7-15.08,27.12-14.24L664,316.73,636.93,331Zm-1.58-1-27.12-17.08,27.12-14.24,27.11,17.08Zm-28.71-18.08-27.11-17.08,27.12-14.24,27.11,17.08Zm-28.7-18.08-27.11-17.08,27.11-14.24,27.12,17.08Zm-28.7-18.08L495,241.57l27.12-14.24,27.12,17.08Zm-28.7-18.08L466.3,223.48l27.12-14.24,27.11,17.09Zm-28.71-18.09L437.6,205.4l27.12-14.24,27.11,17.08ZM436,204.4,408.9,187.32,436,173.08l27.12,17.08Zm-28.7-18.08-27.12-17.08L407.31,155l27.12,17.08Zm-1.59.83-27.11,14.24-27.12-17.08,27.12-14.24ZM377,202.23l-27.11,14.24-27.12-17.09,27.11-14.23Zm-28.7,15.07L321.2,231.54l-27.11-17.08,27.11-14.24Zm-28.7,15.07L292.5,246.61l-27.12-17.08,27.12-14.24Zm-28.71,15.08L263.8,261.69,236.68,244.6l27.12-14.24Zm-28.7,15.07L235.1,276.76,208,259.68l27.12-14.24Zm-28.7,15.07-27.12,14.24-27.11-17.08,27.11-14.24Zm-28.7,15.08-27.12,14.24-27.11-17.09,27.11-14.24Zm-28.7,15.07L149,322,121.87,304.9,149,290.66Zm1.58,1,27.12,17.08-27.12,14.24L150.58,323Zm28.7,18.08,27.12,17.08-27.12,14.24-27.11-17.08ZM235.1,344.9,262.21,362,235.1,376.22,208,359.14ZM263.8,363l27.12,17.09L263.8,394.31l-27.12-17.09Zm28.7,18.09,27.12,17.08L292.5,412.39l-27.11-17.08Zm28.7,18.08,27.12,17.08L321.2,430.47l-27.11-17.08Zm28.71,18.08L377,434.31l-27.11,14.24-27.12-17.08Zm28.7,18.08,27.11,17.08-27.11,14.24-27.12-17.08Zm28.7,18.08,27.11,17.08-27.11,14.24-27.12-17.08Zm1.59-.83L436,438.32l27.12,17.08L436,469.64Zm28.7-15.08,27.12-14.24,27.11,17.09-27.12,14.24Zm28.7-15.07,27.12-14.24,27.11,17.08-27.11,14.24ZM495,407.34l27.12-14.24,27.11,17.08-27.11,14.24Zm28.71-15.07L550.82,378l27.12,17.08-27.12,14.24Zm28.7-15.08L579.53,363,606.64,380l-27.12,14.24Zm28.7-15.07,27.12-14.24L635.34,365,608.23,379.2Zm28.7-15.07,27.12-14.24L664,349.89l-27.11,14.24ZM638.51,332l27.12-14.24,27.12,17.08-27.12,14.25Zm28.71-15.07,27.11-14.24,27.12,17.08L694.33,334Zm-1.59-1-27.11-17.08,27.11-14.24,27.12,17.08Zm-28.7-18.08-27.12-17.08,27.12-14.24,27.12,17.08Zm-28.7-18.08-27.12-17.08,27.12-14.24,27.11,17.08Zm-28.7-18.08-27.12-17.09,27.12-14.23,27.11,17.08Zm-28.71-18.08-27.11-17.09,27.11-14.24,27.12,17.09Zm-28.7-18.09L495,208.41l27.12-14.24,27.11,17.08Zm-28.7-18.08L466.3,190.33l27.12-14.24,27.11,17.08Zm-28.7-18.08L437.6,172.25,464.71,158l27.12,17.08ZM436,171.25,408.9,154.17,436,139.93,463.13,157Zm-28.7-18.08L380.2,136.09l27.11-14.24,27.11,17.08Zm-1.59.83-27.11,14.24-27.12-17.08,27.12-14.24ZM377,169.07,349.9,183.31l-27.11-17.08L349.91,152Zm-28.7,15.08L321.2,198.39,294.09,181.3l27.11-14.23Zm-28.7,15.07L292.5,213.46l-27.11-17.08,27.11-14.24Zm-28.7,15.07L263.8,228.53l-27.12-17.08,27.12-14.24Zm-28.71,15.08L235.1,243.6,208,226.52l27.12-14.24Zm-28.7,15.07-27.12,14.24L179.28,241.6l27.11-14.24Zm-28.7,15.07-27.12,14.24-27.11-17.08,27.11-14.24ZM176.1,274.59,149,288.83l-27.12-17.09L149,257.5Zm-28.7,15.07L120.29,303.9,93.17,286.82l27.12-14.24Zm-28.7,15.07L91.58,319,64.47,301.89l27.12-14.24Zm1.59,1,27.11,17.08-27.11,14.24L93.17,320ZM149,323.81l27.12,17.08L149,355.14l-27.12-17.09Zm28.7,18.08L204.81,359l-27.12,14.24-27.11-17.09ZM206.39,360l27.12,17.09L206.39,391.3l-27.11-17.08Zm28.71,18.09,27.11,17.08L235.1,409.38,208,392.3Zm28.7,18.08,27.12,17.08L263.8,427.46l-27.12-17.08Zm28.7,18.08,27.12,17.08L292.5,445.54l-27.12-17.08Zm28.7,18.08,27.12,17.08L321.2,463.62l-27.11-17.08Zm28.71,18.08L377,467.46,349.9,481.71l-27.11-17.09Zm28.7,18.08,27.11,17.09-27.11,14.24L351.49,482.7Zm28.7,18.09,27.12,17.08-27.12,14.24-27.12-17.08Zm1.59-.84L436,471.47l27.12,17.09L436,502.79Zm28.7-15.07,27.11-14.24,27.12,17.08-27.11,14.24Zm28.7-15.07,27.12-14.24,27.12,17.08-27.12,14.24ZM495,440.49l27.12-14.24,27.12,17.09-27.12,14.24Zm28.71-15.07,27.11-14.24,27.12,17.08L550.82,442.5Zm28.7-15.07,27.11-14.24,27.12,17.08-27.11,14.24Zm28.7-15.08L608.23,381l27.11,17.09-27.11,14.24Zm28.7-15.07L636.93,366,664,383l-27.11,14.24Zm28.7-15.07,27.12-14.24L692.75,368l-27.12,14.24Zm28.71-15.08,27.11-14.24,27.12,17.09-27.12,14.24ZM695.92,335,723,320.74l27.12,17.08L723,352.06Zm54.23-30.31L723,318.91l-27.11-17.08L723,287.59Zm-28.7-18.08-27.12,14.24-27.11-17.08,27.11-14.24Zm-28.7-18.08-27.12,14.24-27.12-17.09,27.12-14.24ZM664,250.43l-27.11,14.23-27.12-17.08,27.12-14.24Zm-28.7-18.09-27.11,14.24L581.11,229.5l27.12-14.24Zm-28.7-18.08L579.53,228.5l-27.12-17.08,27.11-14.24Zm-28.7-18.08-27.12,14.24-27.11-17.08,27.11-14.24ZM549.23,178.1l-27.11,14.24L495,175.26,522.12,161ZM520.53,160l-27.11,14.24L466.3,157.17l27.11-14.24Zm-28.7-18.08-27.12,14.23L437.6,139.09l27.11-14.24Zm-28.7-18.09L436,138.09,408.9,121,436,106.77ZM407.31,88.69l27.11,17.08L407.31,120,380.2,102.93Zm-28.7,15.08,27.11,17.08-27.11,14.24L351.49,118Zm-28.7,15.07L377,135.92l-27.11,14.24-27.12-17.08Zm-28.7,15.07L348.32,151,321.2,165.23l-27.11-17.08ZM292.5,149l27.12,17.09L292.5,180.3l-27.11-17.08Zm-28.7,15.08,27.12,17.08L263.8,195.38,236.69,178.3Zm-28.7,15.07,27.11,17.08L235.1,210.45,208,193.37ZM206.4,194.2l27.11,17.08-27.12,14.24-27.11-17.08Zm-28.71,15.08,27.12,17.08L177.69,240.6l-27.11-17.08ZM149,224.35l27.12,17.08L149,255.67l-27.12-17.08Zm-28.7,15.07L147.4,256.5l-27.11,14.24L93.17,253.66ZM91.59,254.5l27.11,17.08L91.59,285.82,64.47,268.73ZM62.88,269.57,90,286.65,62.88,300.89,35.77,283.81ZM7.07,298.88l27.11-14.24L61.3,301.72,34.18,316ZM35.77,317l27.11-14.24L90,319.8,62.88,334ZM64.47,335,91.58,320.8l27.12,17.09L91.59,352.13Zm28.7,18.09,27.12-14.24L147.4,356l-27.11,14.24Zm28.7,18.08L149,357l27.11,17.08L149,388.29Zm28.71,18.08,27.11-14.24,27.12,17.08-27.12,14.24Zm28.7,18.08,27.11-14.24,27.12,17.08-27.12,14.24ZM208,425.45l27.12-14.24,27.11,17.08L235.1,442.53Zm28.7,18.08,27.12-14.24,27.11,17.09L263.8,460.61Zm28.7,18.08,27.12-14.24,27.12,17.09L292.5,478.7Zm28.71,18.09,27.11-14.24,27.12,17.08L321.2,496.78Zm28.7,18.08,27.11-14.24L377,500.62,349.9,514.86Zm28.7,18.08,27.12-14.24,27.11,17.08-27.11,14.24ZM407.31,551l-27.12-17.08,27.12-14.24,27.11,17.08ZM436,536,408.9,518.87,436,504.63l27.12,17.08Zm28.71-15.07L437.6,503.79l27.12-14.24,27.11,17.09Zm28.7-15.08L466.3,488.72l27.12-14.24,27.11,17.08Zm28.7-15.07L495,473.65l27.12-14.24,27.12,17.08Zm28.7-15.07-27.11-17.08,27.11-14.24,27.12,17.08Zm28.71-15.08L552.41,443.5l27.12-14.24,27.11,17.08Zm28.7-15.07-27.12-17.08,27.12-14.24,27.11,17.08Zm28.7-15.07-27.12-17.08,27.12-14.24,27.12,17.08Zm28.7-15.08-27.11-17.08L665.63,384l27.12,17.09Zm28.7-15.07-27.11-17.08L694.33,369l27.12,17.08ZM723,385.22l-27.11-17.08L723,353.9,750.15,371Zm28.71-15.07-27.12-17.09,27.12-14.24,27.11,17.09Zm28.7-15.08L753.33,338l27.11-14.24,27.12,17.08Z"/></g><path class="cls-6" d="M597.59,202.94,318.27,26.57a5.15,5.15,0,0,0-5.16-.24h0l-.08,0,0,0-6.06,3.15,3.4,2.8V234a25.6,25.6,0,0,0,11.94,21.57L600.22,431l.85,4.07,5.23-2.74a4.69,4.69,0,0,0,.86-.45l.06,0h0a5.06,5.06,0,0,0,2.3-4.26V224.51A25.54,25.54,0,0,0,597.59,202.94Z"/><path class="cls-7" d="M603.76,227.48V430.57a5.12,5.12,0,0,1-7.91,4.3L316.53,258.52A25.58,25.58,0,0,1,304.59,237V33.84a5.14,5.14,0,0,1,7.93-4.29L591.84,205.92A25.53,25.53,0,0,1,603.76,227.48Z"/><path class="cls-8" d="M603.76,227.48v3.24L304.59,41.8v-8a5.14,5.14,0,0,1,7.93-4.29L591.84,205.92A25.53,25.53,0,0,1,603.76,227.48Z"/><path class="cls-9" d="M562.35,195.71c0,2.17-1.76,2.81-3.93,1.43s-3.94-4.28-3.94-6.45,1.76-2.81,3.94-1.42S562.35,193.54,562.35,195.71Z"/><path class="cls-10" d="M576.92,205c0,2.17-1.76,2.81-3.93,1.42s-3.93-4.27-3.93-6.44,1.76-2.81,3.93-1.43S576.92,202.84,576.92,205Z"/><path class="cls-11" d="M591.5,214.31c0,2.17-1.76,2.81-3.94,1.42s-3.93-4.27-3.93-6.45,1.76-2.81,3.93-1.42S591.5,212.13,591.5,214.31Z"/><path class="cls-12" d="M457.62,214.89v53.35a1.08,1.08,0,0,1-1.67.91L397.17,232a5.38,5.38,0,0,1-2.52-4.53V174.14a1.08,1.08,0,0,1,1.67-.9l58.79,37.11A5.38,5.38,0,0,1,457.62,214.89Z"/><path class="cls-13" d="M457.62,179.5v18.11a1.08,1.08,0,0,1-1.67.9L397.17,161.4a5.39,5.39,0,0,1-2.52-4.54V138.75a1.08,1.08,0,0,1,1.67-.9L455.11,175A5.38,5.38,0,0,1,457.62,179.5Z"/><path class="cls-14" d="M437.46,226.43l-7.89-5v-7.89a3.07,3.07,0,0,0-1.39-2.27l-4.09-2.59c-.77-.49-1.39-.26-1.39.51v7.89l-7.89-5c-.77-.49-1.39-.26-1.39.51v4.08a3.07,3.07,0,0,0,1.39,2.27l7.89,5v7.9a3.1,3.1,0,0,0,1.39,2.27l4.09,2.59c.77.48,1.39.25,1.39-.51V228.3l7.89,5c.77.48,1.39.25,1.39-.51V228.7A3.09,3.09,0,0,0,437.46,226.43Z"/><path class="cls-13" d="M384.34,125.51l-53.82-33.9a2.84,2.84,0,0,0-2.94-.42v0l-3.16,1.63,3.72,3v44.8c0,2.08,1.69,4.84,3.77,6.15l51.61,32.5.33,4.33,3.26-1.69h0a1.93,1.93,0,0,0,1-1.92V131.66C388.12,129.58,386.43,126.82,384.34,125.51Z"/><path class="cls-15" d="M384.88,133.33v48.29c0,2.08-1.69,2.71-3.77,1.4l-53.83-33.9c-2.08-1.31-3.77-4.07-3.77-6.15V94.68c0-2.08,1.69-2.7,3.77-1.39l53.83,33.89C383.19,128.5,384.88,131.25,384.88,133.33Z"/><path class="cls-16" d="M359.34,169.3l-32.06-20.18c-2.08-1.31-3.77-4.07-3.77-6.15V117.49l6.69-7.37c1.23-1.36,4.33.59,5.57,3.51l18.59,43.91Z"/><path class="cls-17" d="M384.88,178.23v3.39c0,2.08-1.69,2.71-3.77,1.4l-31.73-20,5-5.49,12.05-13.29c1.24-1.37,4.33.58,5.57,3.5Z"/><path class="cls-18" d="M376.83,136.25c0,4.42-3.58,5.74-8,3s-8-8.61-8-13,3.58-5.74,8-3S376.83,131.84,376.83,136.25Z"/><path class="cls-19" d="M266.7,175.9v19.74a2.9,2.9,0,0,1-4.44,2.45L237,182.19a7.94,7.94,0,0,1-3.71-6.73V161.77s1.31-5.92,4.76-4.47c3.79,1.59,3.38,13.72,5.62,15.1s4-17.94,9.51-15c6.56,3.47,1.53,26.55,5.88,28C263.3,186.68,262.35,176.23,266.7,175.9Z"/><path class="cls-20" d="M254.65,151c0,.66-.53.85-1.2.43a2.68,2.68,0,0,1-1.2-2c0-.66.54-.85,1.2-.43A2.65,2.65,0,0,1,254.65,151Z"/><path class="cls-21" d="M259.1,153.8c0,.67-.54.86-1.2.44a2.72,2.72,0,0,1-1.2-2c0-.66.54-.86,1.2-.43A2.68,2.68,0,0,1,259.1,153.8Z"/><path class="cls-22" d="M263.55,156.64c0,.66-.54.86-1.2.43a2.65,2.65,0,0,1-1.2-2c0-.67.53-.86,1.2-.44A2.72,2.72,0,0,1,263.55,156.64Z"/><path class="cls-23" d="M293,319.44a2.09,2.09,0,0,0,2-1.6l39.15-158.31a2.11,2.11,0,0,0-4.1-1L291,316.83a2.11,2.11,0,0,0,1.54,2.55A2.22,2.22,0,0,0,293,319.44Z"/><path class="cls-24" d="M359.76,207.63a1.58,1.58,0,0,0,.81-2.94l-33.33-19.76a1.58,1.58,0,0,0-1.61,2.72L359,207.41A1.56,1.56,0,0,0,359.76,207.63Z"/><path class="cls-24" d="M354.41,229.19a1.58,1.58,0,0,0,.81-2.94L321.9,206.5a1.58,1.58,0,0,0-1.61,2.72L353.61,229A1.56,1.56,0,0,0,354.41,229.19Z"/><path class="cls-24" d="M349.07,250.76a1.58,1.58,0,0,0,.8-2.94l-33.31-19.75a1.58,1.58,0,1,0-1.61,2.72l33.31,19.75A1.57,1.57,0,0,0,349.07,250.76Z"/><path class="cls-24" d="M343.72,272.32a1.56,1.56,0,0,0,1.36-.77,1.58,1.58,0,0,0-.55-2.17l-33.31-19.74a1.58,1.58,0,1,0-1.61,2.72l33.31,19.74A1.56,1.56,0,0,0,343.72,272.32Z"/><path class="cls-24" d="M338.37,293.89a1.58,1.58,0,0,0,.81-2.94l-33.3-19.74a1.58,1.58,0,1,0-1.61,2.72l33.3,19.74A1.56,1.56,0,0,0,338.37,293.89Z"/><path class="cls-24" d="M333,315.46a1.58,1.58,0,0,0,.8-2.95l-33.29-19.73a1.58,1.58,0,0,0-1.62,2.72l33.3,19.73A1.58,1.58,0,0,0,333,315.46Z"/><path class="cls-25" d="M322.47,251.55a2.36,2.36,0,0,0-2.43,1s-3.39-1.8-5.86-.94a4.92,4.92,0,0,0-2.83,3.83c-.17,1.06-.24,1.69-.27,2a.39.39,0,0,0,.06.3,2.88,2.88,0,0,0,1.63,1.3,6.35,6.35,0,0,0,3.4.26,7.59,7.59,0,0,0,1.84-.67,1.38,1.38,0,0,1,.67-.66,8.48,8.48,0,0,1,2.17-.27c4.15-.24,5.06-2,5.46-2.6C327.42,253.48,326.91,249.82,322.47,251.55Z"/><path class="cls-15" d="M320.67,250.66a43.27,43.27,0,0,1,4.33.1c3.6.75,1.59,6.45-4.25,6.47-2.91,0-3.07,1.15-5.5,1.23a5.35,5.35,0,0,1-3-.7,2.47,2.47,0,0,1-.87-2.93c.31-1.76,1-3.3,2.78-3.76A25.72,25.72,0,0,1,320.67,250.66Z"/><path class="cls-26" d="M315.34,245.09s-1.23,4.1-1.61,5c-.23.52-.67,1.61-.88,2s.34,1.8,2.9,2,3.61-1.15,3.62-1.26c.06-1.65,1.39-4.67,2-6"/><path class="cls-27" d="M330.22,227c-1.54,3.18-9.7,23.18-9.7,23.18-.2.28-.84,1.72-3.75,1.9-3.35.2-4-1.93-4-1.93,0-2.11,4.84-27.38,6.51-31,.45-1,2-4.3,3.29-6.54l11.15,4.78C332.51,220.91,330.57,226.31,330.22,227Z"/><path class="cls-28" d="M314.08,196.67s-1.85,3.1-2.88,10.66a15.94,15.94,0,0,0,2.35,9.77c2.22,3.37,7.95,6.19,7.95,6.19l9.84,6.14s3.7.15,7-5.48-.61-15.72-.61-15.72Z"/><path class="cls-29" d="M322.86,212.64a10.52,10.52,0,0,0-.65,7.45,29,29,0,0,0,1.8,4.77l2.28,1.49.55-2.44Z"/><path class="cls-25" d="M329.37,281.94a13.48,13.48,0,0,1-3.15-.43s-3.58-1.46-5.93-.32-2.45,3.1-2.43,4.59c0,.52,0,1.36,0,1.55a.59.59,0,0,0,.15.33,2.68,2.68,0,0,0,1.68,1,6.39,6.39,0,0,0,3.41-.05,7.5,7.5,0,0,0,1.76-.85s.46-.7.7-.79a6.9,6.9,0,0,1,2-.37c4.84-.34,5.93-1.95,6.33-2.79C334.62,282.3,333.6,279.75,329.37,281.94Z"/><path class="cls-15" d="M326.13,279.86l5.53.3c2,.13,2.86,1.85,2.12,3.19-.5.91-1.52,2.36-6.37,2.69-2.16.22-3.08,1.36-5.34,1.81a5.12,5.12,0,0,1-3.09-.38,2.68,2.68,0,0,1-1.18-2.83c.14-1.78.68-3.38,2.37-4A17.65,17.65,0,0,1,326.13,279.86Z"/><path class="cls-26" d="M320.94,277s-.64,3.21-.85,3.58-.59.62-.69,1c-.17.6,1.29,1.68,2.84,1.9,3,.43,4.07-.65,4.28-1.06a43,43,0,0,1,1.3-4.72"/><path class="cls-30" d="M343.73,218.47c-.06-1.55-1.1-9.52-1.1-9.52l-17-5.11s-3.67,5.54-3.42,11.81c.14,3.48,3.56,10.93,3.56,10.93,1,5.37,2.53,19.5,2.52,19.61-1,2.22-3.89,11.93-4.3,13.52-1.1,4.22-3.91,19.16-3.91,19.16s-.39,2,3,2.48c4,.6,5.26-1.81,5.26-1.81s11.2-29.18,11.76-31.79a94.74,94.74,0,0,0,2.87-12.37A73.57,73.57,0,0,0,343.73,218.47Z"/><path class="cls-26" d="M341.07,154.32a15.5,15.5,0,0,1-3.15.75h-.13a.45.45,0,0,0-.16,0,3.67,3.67,0,0,0-.57.12.75.75,0,0,0-.47.32,28.57,28.57,0,0,0-.68,4.65l-1.19-.62-7.26-3.74s.4-2,.57-4,1.49-12,4.25-13.37,10.86.56,11.53,1.65c0,0-.07,1.77-.25,4.71S342.64,153.59,341.07,154.32Z"/><path class="cls-31" d="M331.58,133c-2.39,1-2.39,2.18-3,2.68-3.34,1.17-3.27,4.93-3,7.27A25.77,25.77,0,0,0,327.2,149c.27,1-.14,2,.07,2.58.28.83,1.51,1.6,2.24,2,.92.46,2.46.65,2.89.05.68-1,1.14-3.81,1.27-5.22.1-1.08.59-1.6,1.3-1.53s.7,1.08.78,2a.83.83,0,0,0,1.2.76,18.46,18.46,0,0,0,.73-2.62c.24-.66,2.41-1.8,2.66-3.82.2-1.64,1.08-1.37,2.83-2,3.08-1,3-3.67,1.66-5.69a6.93,6.93,0,0,0-3.95-2.54C337.83,132.41,334.14,131.94,331.58,133Z"/><path class="cls-14" d="M342.61,192.25v0h0a41.1,41.1,0,0,0-.51,10.44,51.34,51.34,0,0,0,1.29,7.6c.25,1-2.51,4-5.35,4.84-9.66,2.85-22.79-8.07-25.36-12-2.16-3.38,1-8.53,2.21-11.23,2.2-4.71,2.6-8.45.17-14.61-3-7.59-3.4-17.56,1.45-21.08a7.07,7.07,0,0,1,8.24-.56l1.83.9.81-1.21a42.65,42.65,0,0,1,10.5,6.29l-.15,1.06.33.25c3.64,2.39,6.61,4.84,8.35,7.65l-2.3,13-.87,5Z"/><path class="cls-32" d="M344.13,183.63l-.87,5a46.46,46.46,0,0,1-5.5-6.51Z"/><path class="cls-33" d="M337.85,162l-.11.74s-5.38-3.31-8.36-4.78A44.71,44.71,0,0,1,337.85,162Z"/><path class="cls-34" d="M342.61,192.27h0Z"/><path class="cls-23" d="M327.11,339.87a2.11,2.11,0,0,0,2.05-1.6L368.3,180a2.11,2.11,0,1,0-4.09-1L325.06,337.26a2.11,2.11,0,0,0,1.54,2.55A1.78,1.78,0,0,0,327.11,339.87Z"/><path class="cls-26" d="M389.15,171.34a1.39,1.39,0,0,0-.3.26,1,1,0,0,0-1.15.46,9.52,9.52,0,0,1-2.66,2.4c-.63.16-1.14.26-1.14.26l.38-.82a13.13,13.13,0,0,1,.77-1.31c.5-.74.31-1.35-.12-1.32a7.43,7.43,0,0,0-2.53,1.89c-.59.61-1.26,1.31-1.76,1.89-.22.27-.9,2.1-2,2.65a32.33,32.33,0,0,1-4.93,1.71c-6.58,1.9-12.38,3.38-12.38,3.38l-5.59-3.87L347,186.29s8.79,7.53,12.76,6.65c2.88-.64,17.89-9.23,17.89-9.23s3.9-2.1,4.36-2.25c.76-.24,1.86-.36,2.74-.7a6.17,6.17,0,0,0,2.62-2.14c.33-.48,1.52-3.05,2.05-4.16s.29-1.25,0-1.31l.43-.87C390.35,171.17,389.63,171,389.15,171.34Z"/><path class="cls-14" d="M344,167.61c3.2,2.6,12,11.26,12,11.26a6.9,6.9,0,0,1,.25,5.43c-1.43,3.82-5.07,5.73-7.07,5.26-2.49-.6-6.6-3.66-8.77-5.1-3.26-2.16-8.71-8.41-4.51-15.45C338.26,165.18,342.44,166.32,344,167.61Z"/><path class="cls-35" d="M619.85,265.35l13.77,8.6a2.61,2.61,0,0,1,1.1,1.69v13.44L621,280.48a2.52,2.52,0,0,1-1.1-1.69V265.35m-.41-1.41c-.47,0-.78.33-.78.92v13.93a3.64,3.64,0,0,0,1.66,2.7l13.93,8.7a1.62,1.62,0,0,0,.87.3c.47,0,.78-.32.78-.92V275.64a3.65,3.65,0,0,0-1.65-2.69l-13.93-8.71a1.77,1.77,0,0,0-.88-.3Z"/><path class="cls-36" d="M661.44,292.38l-20.3-12.69a2.67,2.67,0,0,1-1.22-2h0c0-.67.54-.88,1.22-.46l20.3,12.69a2.7,2.7,0,0,1,1.22,2h0C662.66,292.59,662.11,292.8,661.44,292.38Z"/><path class="cls-37" d="M661.44,297.31l-20.3-12.68a2.67,2.67,0,0,1-1.22-2h0c0-.68.54-.88,1.22-.46l20.3,12.69a2.68,2.68,0,0,1,1.22,2h0C662.66,297.53,662.11,297.74,661.44,297.31Z"/><path class="cls-38" d="M661.44,302.25l-20.3-12.69a2.67,2.67,0,0,1-1.22-2h0c0-.67.54-.88,1.22-.46l20.3,12.69a2.7,2.7,0,0,1,1.22,2h0C662.66,302.47,662.11,302.67,661.44,302.25Z"/><path class="cls-39" d="M649.84,299.94l-8.7-5.44a2.67,2.67,0,0,1-1.22-2h0c0-.68.54-.88,1.22-.46l8.7,5.44a2.67,2.67,0,0,1,1.22,2h0C651.06,300.16,650.52,300.36,649.84,299.94Z"/><path class="cls-40" d="M628.48,308.52l3.84-1.44c.37-.14.37-.74,0-1.34s-1-1-1.34-.84l-3.84,1.44-3.85-6.24c-.37-.6-1-1-1.34-.84s-.37.74,0,1.34l3.84,6.25L622,308.29c-.37.14-.37.74,0,1.34s1,1,1.34.84l3.85-1.44,3.84,6.25c.37.6,1,1,1.34.83s.37-.74,0-1.34Z"/><path class="cls-41" d="M619.85,296.16l13.77,8.6a2.57,2.57,0,0,1,1.1,1.69v13.44L621,311.29a2.52,2.52,0,0,1-1.1-1.69V296.16m-.41-1.41c-.47,0-.78.33-.78.92V309.6a3.64,3.64,0,0,0,1.66,2.7l13.93,8.7a1.62,1.62,0,0,0,.87.3c.47,0,.78-.32.78-.92V306.45a3.65,3.65,0,0,0-1.65-2.69l-13.93-8.71a1.77,1.77,0,0,0-.88-.3Z"/><path class="cls-42" d="M661.44,323.19l-20.3-12.69a2.67,2.67,0,0,1-1.22-2h0c0-.67.54-.88,1.22-.46l20.3,12.69a2.7,2.7,0,0,1,1.22,2h0C662.66,323.4,662.11,323.61,661.44,323.19Z"/><path class="cls-43" d="M661.44,328.12l-20.3-12.68a2.67,2.67,0,0,1-1.22-2h0c0-.68.54-.88,1.22-.46l20.3,12.69a2.68,2.68,0,0,1,1.22,2h0C662.66,328.34,662.11,328.55,661.44,328.12Z"/><path class="cls-44" d="M661.44,333.06l-20.3-12.69a2.67,2.67,0,0,1-1.22-2h0c0-.67.54-.88,1.22-.46l20.3,12.69a2.7,2.7,0,0,1,1.22,2h0C662.66,333.28,662.11,333.48,661.44,333.06Z"/><path class="cls-45" d="M649.84,330.75l-8.7-5.44a2.67,2.67,0,0,1-1.22-2h0c0-.68.54-.88,1.22-.46l8.7,5.44a2.67,2.67,0,0,1,1.22,2h0C651.06,331,650.52,331.17,649.84,330.75Z"/><path class="cls-46" d="M619.85,327l13.77,8.61a2.53,2.53,0,0,1,1.1,1.68V350.7L621,342.1a2.52,2.52,0,0,1-1.1-1.69V327m-.41-1.41c-.47,0-.78.33-.78.92v13.93a3.64,3.64,0,0,0,1.66,2.7l13.93,8.7a1.62,1.62,0,0,0,.87.3c.47,0,.78-.32.78-.92V337.26a3.65,3.65,0,0,0-1.65-2.69l-13.93-8.71a1.77,1.77,0,0,0-.88-.3Z"/><path class="cls-47" d="M661.44,354l-20.3-12.69a2.67,2.67,0,0,1-1.22-2h0c0-.67.54-.88,1.22-.46l20.3,12.69a2.7,2.7,0,0,1,1.22,2h0C662.66,354.21,662.11,354.42,661.44,354Z"/><path class="cls-48" d="M661.44,358.93l-20.3-12.68a2.67,2.67,0,0,1-1.22-2h0c0-.68.54-.88,1.22-.46l20.3,12.69a2.68,2.68,0,0,1,1.22,2h0C662.66,359.15,662.11,359.36,661.44,358.93Z"/><path class="cls-49" d="M661.44,363.87l-20.3-12.69a2.65,2.65,0,0,1-1.22-2h0c0-.67.54-.88,1.22-.46l20.3,12.69a2.7,2.7,0,0,1,1.22,2h0C662.66,364.09,662.11,364.29,661.44,363.87Z"/><path class="cls-50" d="M649.84,361.56l-8.7-5.44a2.67,2.67,0,0,1-1.22-2h0c0-.68.54-.88,1.22-.46l8.7,5.44a2.67,2.67,0,0,1,1.22,2h0C651.06,361.78,650.52,362,649.84,361.56Z"/><path class="cls-51" d="M579.45,246.28v93.59a1.9,1.9,0,0,1-2.92,1.59L473.41,276.35a9.45,9.45,0,0,1-4.4-8V174.8a1.89,1.89,0,0,1,2.92-1.59l103.12,65.11A9.43,9.43,0,0,1,579.45,246.28Z"/><path class="cls-52" d="M556.06,257l-1.74-1.09a3,3,0,0,1-1.22-1.76,48,48,0,0,0-3.26-10c-.31-.7-.25-1.31.16-1.46l1.22-.45c.57-.21.57-1.13,0-2.05l-5-8.21c-.56-.92-1.48-1.5-2-1.29l-1.22.45c-.42.16-1.06-.19-1.56-.82a62.43,62.43,0,0,0-7.91-8.24,2.78,2.78,0,0,1-1-1.85V218.5a3.2,3.2,0,0,0-1.44-2.35l-7.13-4.49a1.08,1.08,0,0,0-1.08-.17v0l-4.08,2.15a20.4,20.4,0,0,0-5.18-.81,2.17,2.17,0,0,1-1.56-1.15l-1.22-2c-.57-.92-1.48-1.5-2-1.29l-5,1.87L496.47,214s3.29,2.14,3.56,2.36,2.21,1,2.8,1.25a1.7,1.7,0,0,0,.86,0,13.56,13.56,0,0,0-1.88,4.14c-.14.49-.63.6-1.22.22l-1.74-1.09a1,1,0,0,0-1.12-.14v0l-7.08,3.72s2.3,2.93,2.52,3.15a5,5,0,0,0,1.69.3A28.07,28.07,0,0,0,497.4,226v2.56a3.22,3.22,0,0,0,1.45,2.36l1.74,1.09a2.92,2.92,0,0,1,1.22,1.76,48.43,48.43,0,0,0,3.26,10c.31.69.25,1.3-.16,1.46l-1.22.45-7.22,3.79,5,2.63,1.86-5.35a2.5,2.5,0,0,0,.37,1l5,8.22c.57.92,1.48,1.49,2,1.28l1.22-.45c.42-.15,1.06.19,1.56.82a63.65,63.65,0,0,0,7.9,8.24,2.7,2.7,0,0,1,1,1.84v1.74a3.2,3.2,0,0,0,1.45,2.36l4.69,2.95h0a27.52,27.52,0,0,0-4,1.46l-.17,1.34.44,2.73,7.26-3.81h0a.76.76,0,0,0,.37-.72V274c0-.59.42-.83,1-.6a24,24,0,0,0,5.92,1.58,2.31,2.31,0,0,0-.37.7c0,.26,1.1,3.5,1.1,3.5l3.91,2.29,7.21-3.79c.57-.21.57-1.12,0-2l-1.22-2c-.42-.68-.48-1.37-.16-1.67a11,11,0,0,0,1.35-1.66l5.92-3.11h0a.73.73,0,0,0,.4-.74v-7.13A3.19,3.19,0,0,0,556.06,257Zm-26.92,3.29c-9.22-4.82-17-16.92-17-25.94,0-8.45,6.85-11,15.31-5.67,9.06,5.7,16.28,18.12,15.21,26.7C541.85,261.85,536.16,263.92,529.14,260.25Z"/><path class="cls-15" d="M491.64,234.73l1.73,1.1a2.93,2.93,0,0,1,1.23,1.76,48.15,48.15,0,0,0,3.26,9.95c.31.7.25,1.31-.17,1.47l-1.22.45c-.56.21-.56,1.12,0,2l5,8.21c.57.92,1.48,1.5,2.05,1.29l1.22-.45c.42-.16,1.06.19,1.56.82a62.28,62.28,0,0,0,7.9,8.23,2.74,2.74,0,0,1,1,1.85v1.74a3.22,3.22,0,0,0,1.45,2.36L523.8,280c.8.51,1.45.27,1.45-.53v-1.74c0-.59.42-.83,1-.6a22.06,22.06,0,0,0,7.9,1.71,2.23,2.23,0,0,1,1.57,1.15l1.22,2c.56.92,1.48,1.49,2,1.28l5-1.86c.56-.21.56-1.13,0-2.05l-1.22-2c-.42-.68-.48-1.36-.17-1.66a12.71,12.71,0,0,0,3.27-5.85c.13-.49.63-.59,1.22-.22l1.74,1.09c.79.51,1.44.27,1.44-.53V263.1a3.2,3.2,0,0,0-1.44-2.35l-1.74-1.1a2.92,2.92,0,0,1-1.22-1.76,48.43,48.43,0,0,0-3.26-10c-.32-.69-.26-1.3.16-1.46L544,246c.56-.21.56-1.12,0-2l-5-8.21c-.56-.92-1.48-1.5-2-1.29l-1.22.45c-.42.16-1.06-.19-1.57-.82a61.13,61.13,0,0,0-7.9-8.24,2.78,2.78,0,0,1-1-1.85v-1.73a3.22,3.22,0,0,0-1.45-2.36l-7.12-4.48c-.8-.51-1.45-.27-1.45.53v1.73c0,.59-.41.83-1,.6a22,22,0,0,0-7.9-1.71,2.2,2.2,0,0,1-1.57-1.15l-1.21-2c-.57-.92-1.48-1.49-2.05-1.28l-5,1.86c-.56.21-.56,1.13,0,2.05l1.22,2c.42.68.48,1.36.17,1.66a12.7,12.7,0,0,0-3.26,5.85c-.14.49-.64.59-1.23.22l-1.73-1.09c-.8-.51-1.45-.27-1.45.53v7.13A3.18,3.18,0,0,0,491.64,234.73Zm13.29,3.37c0-8.45,6.85-11,15.31-5.67,9.06,5.7,16.28,18.11,15.21,26.7-.81,6.5-6.5,8.57-13.52,4.9C512.71,259.21,504.93,247.11,504.93,238.1Z"/><path class="cls-53" d="M564,311.27,484.48,261a3.32,3.32,0,0,1-1.5-2.45c0-.83.67-1.07,1.5-.55L564,308.27a3.32,3.32,0,0,1,1.5,2.45C565.48,311.55,564.81,311.79,564,311.27Z"/><path class="cls-54" d="M564,319l-79.5-50.23a3.34,3.34,0,0,1-1.5-2.45c0-.83.67-1.08,1.5-.55L564,316a3.32,3.32,0,0,1,1.5,2.45C565.48,319.26,564.81,319.51,564,319Z"/><path class="cls-55" d="M528,304.05l-43.51-27.58A3.3,3.3,0,0,1,483,274c0-.83.67-1.08,1.5-.56L528,301.05a3.32,3.32,0,0,1,1.5,2.45C529.49,304.33,528.82,304.57,528,304.05Z"/><path class="cls-56" d="M527.65,340.35v29.13a1.89,1.89,0,0,1-2.92,1.58L396.86,290.48a9.44,9.44,0,0,1-4.41-8V253.39a1.9,1.9,0,0,1,2.93-1.59l127.87,80.59A9.45,9.45,0,0,1,527.65,340.35Z"/><path class="cls-13" d="M520.64,353.89c0-.21-.08-.41-.12-.62s-.09-.53-.16-.8-.16-.58-.25-.87-.11-.36-.17-.54c-.13-.36-.28-.71-.43-1.07,0-.1-.08-.21-.13-.32-.19-.41-.39-.81-.61-1.2l-.07-.14a14.88,14.88,0,0,0-.78-1.27v0a16.76,16.76,0,0,0-1.89-2.35l1.33-.67h0a2.26,2.26,0,0,0,.56-.43l.08-.1a2.34,2.34,0,0,0,.33-.49,1.47,1.47,0,0,0,.1-.22,3.29,3.29,0,0,0,.19-.58c0-.08,0-.16.07-.25a5.82,5.82,0,0,0,.09-1,8.64,8.64,0,0,0-.12-1.32c0-.16-.08-.32-.11-.49s-.14-.58-.23-.88-.13-.35-.2-.53-.22-.57-.35-.86l-.24-.49c-.16-.31-.33-.6-.51-.9,0-.08-.09-.17-.15-.25s-.08-.11-.11-.16-.24-.34-.36-.5l-.39-.5-.39-.45-.48-.48c-.12-.12-.24-.24-.37-.35a8.28,8.28,0,0,0-.9-.69,3.7,3.7,0,0,0-3.31-.66h0l-.06,0-.21.12-3.17,1.59,2,4,.29.59,0,.06,1.17,3.35,0,0h0l-4.74,2.4,1,.6c.49.3,1,.6,1.06.62h.09l.57.09c0,.2,0,.4,0,.6v2.05l2.59,1.68,3.9,2.52-.13.52,2.6,6.7,3.32-1.68v-2.05A10.78,10.78,0,0,0,520.64,353.89Z"/><path class="cls-15" d="M510.54,333.81a11.76,11.76,0,0,1,4.91,8.85c0,2.43-1.35,3.63-3.23,3.22,3,2.82,5.2,7.36,5.19,11.08v2l-13.84-8.95V348c0-3.72,2.24-5.4,5.23-4.34a11.73,11.73,0,0,1-3.19-7.38C505.61,333.16,507.82,332.05,510.54,333.81Z"/><path class="cls-13" d="M481.63,162.22,435.1,132.73a.78.78,0,0,0-.82,0h0l-1.91.79,1.88,1.71v35a1.74,1.74,0,0,0,.82,1.46l45,28.55.45,2.25,1.87-.79h0a.66.66,0,0,0,.44-.63V164.43A2.63,2.63,0,0,0,481.63,162.22Z"/><path class="cls-57" d="M480.93,165.25V201.9a.68.68,0,0,1-1.07.56l-47.05-29.81a1.74,1.74,0,0,1-.81-1.46v-37a.74.74,0,0,1,1.16-.61L479.69,163A2.65,2.65,0,0,1,480.93,165.25Z"/><line class="cls-58" x1="433.79" y1="139.38" x2="478.41" y2="167.63"/><path class="cls-15" d="M470.84,161.45l-1.92-1.21a1.09,1.09,0,0,1-.49-.8v-1.91c0-.27.22-.35.49-.18l1.92,1.21a1.09,1.09,0,0,1,.49.8v1.91C471.33,161.55,471.11,161.63,470.84,161.45Z"/><path class="cls-15" d="M474.38,163.7l-1.92-1.21a1.11,1.11,0,0,1-.49-.81v-1.91c0-.27.22-.35.49-.18l1.92,1.21a1.09,1.09,0,0,1,.49.8v1.92C474.87,163.79,474.65,163.87,474.38,163.7Z"/><path class="cls-15" d="M477.92,165.94,476,164.73a1.07,1.07,0,0,1-.5-.8V162c0-.27.22-.35.5-.18l1.91,1.22a1.09,1.09,0,0,1,.49.8v1.91C478.41,166,478.19,166.11,477.92,165.94Z"/><path class="cls-15" d="M447.09,151.16v10a.63.63,0,0,1-1,.52l-11.71-7.39a1.63,1.63,0,0,1-.76-1.36V142.57a.69.69,0,0,1,1.08-.56l11.23,7.1A2.45,2.45,0,0,1,447.09,151.16Z"/><path class="cls-15" d="M447.09,165v.63a.63.63,0,0,1-1,.53l-11.71-7.4a1.63,1.63,0,0,1-.76-1.36v-1a.69.69,0,0,1,1.08-.56l11.23,7.09A2.47,2.47,0,0,1,447.09,165Z"/><path class="cls-15" d="M447.09,169v.63a.63.63,0,0,1-1,.52l-11.71-7.39a1.63,1.63,0,0,1-.76-1.36v-1a.69.69,0,0,1,1.08-.56L445.94,167A2.47,2.47,0,0,1,447.09,169Z"/><path class="cls-15" d="M447.09,173.09v.63a.63.63,0,0,1-1,.52l-11.71-7.39a1.63,1.63,0,0,1-.76-1.36v-1a.68.68,0,0,1,1.08-.56L445.94,171A2.47,2.47,0,0,1,447.09,173.09Z"/><path class="cls-15" d="M447.09,177.15v.63a.63.63,0,0,1-1,.52l-11.71-7.39a1.63,1.63,0,0,1-.76-1.36v-1a.69.69,0,0,1,1.08-.57l11.23,7.1A2.47,2.47,0,0,1,447.09,177.15Z"/><path class="cls-59" d="M436.09,146.07V147l4.15,4.88,4.16.34v-.93a1,1,0,0,0-.48-.84l-7.32-4.6A.32.32,0,0,0,436.09,146.07Z"/><path class="cls-60" d="M440.24,152.55l-4.15-4.88v3.89a1.2,1.2,0,0,0,.57,1l7.17,4.51a.37.37,0,0,0,.57-.3v-3.89Z"/><path class="cls-15" d="M478.41,170.54v27.53a.42.42,0,0,1-.66.34l-28.7-18.18a1.07,1.07,0,0,1-.5-.89V151.57a.45.45,0,0,1,.71-.37l28.39,18A1.62,1.62,0,0,1,478.41,170.54Z"/><path class="cls-61" d="M451.32,157.51l24.17,15.32a.29.29,0,0,0,.46-.23v-1.46a.76.76,0,0,0-.35-.62L451.43,155.2a.29.29,0,0,0-.46.24v1.46A.72.72,0,0,0,451.32,157.51Z"/><path class="cls-62" d="M451.32,161.88l24.17,15.32A.29.29,0,0,0,476,177v-1.46a.76.76,0,0,0-.35-.62l-24.17-15.32a.29.29,0,0,0-.46.24v1.46A.72.72,0,0,0,451.32,161.88Z"/><path class="cls-63" d="M451.32,166.25l24.17,15.32a.29.29,0,0,0,.46-.23v-1.46a.76.76,0,0,0-.35-.62l-24.17-15.32a.29.29,0,0,0-.46.24v1.46A.72.72,0,0,0,451.32,166.25Z"/><path class="cls-64" d="M451.32,170.62l24.17,15.32a.29.29,0,0,0,.46-.23v-1.46a.76.76,0,0,0-.35-.62l-24.17-15.32a.29.29,0,0,0-.46.24V170A.72.72,0,0,0,451.32,170.62Z"/><path class="cls-65" d="M451.32,175l24.17,15.32a.29.29,0,0,0,.46-.23v-1.46a.76.76,0,0,0-.35-.62l-24.17-15.32a.29.29,0,0,0-.46.24v1.46A.72.72,0,0,0,451.32,175Z"/><path class="cls-66" d="M451.32,179.36l24.17,15.32a.29.29,0,0,0,.46-.23V193a.76.76,0,0,0-.35-.62l-24.17-15.32a.29.29,0,0,0-.46.24v1.46A.72.72,0,0,0,451.32,179.36Z"/><path class="cls-67" d="M428.08,86.29s-8.05.61-11,1.65c-4,1.41-5.67,5.93-3.8,8.62s17.11,2.06,17.11,2.06Z"/><path class="cls-14" d="M438.93,85c-5.07-.22-10.31.9-14.9,1.48-.71.08-2.86,5.18,1.27,13.2,5.15.24,12.43,1,12.43,1S442.58,85.19,438.93,85Z"/><path class="cls-14" d="M472.19,103.9c-.08.32-4.13,9.06-5.07,12.13-.38,1.24-.82,2.49-1.28,3.72l-30.53-19.28c-.74-9.45,1.88-15.58,3-15.5,11.89.89,23.78,6.58,28.86,12.19A33.5,33.5,0,0,1,472.19,103.9Z"/><path class="cls-68" d="M452.52,84.42l3.86,5.52a2.58,2.58,0,0,1-.53,3c-1.88,2.27-6,3.14-7.94,1.56-.87-.62-.51-2.63-1.73-4.41L450.61,86Z"/><path class="cls-67" d="M436.57,79.86a31.77,31.77,0,0,0,2.26,8.47c1.77,3.9,2.24,4.76,4,5.15s3.3.16,5.7-2.2a14.09,14.09,0,0,0,3.32-5.57s.45.18,1.21-1.15a6.1,6.1,0,0,0,.82-5.38,17,17,0,0,0-4.2-8c-2.49-2.72-8-.55-10.26,1.3S436.52,77.11,436.57,79.86Z"/><path class="cls-31" d="M453,71.35a4.22,4.22,0,0,0-3-1.1s-5.39-3.55-9.85-.08a15.4,15.4,0,0,0-4.71,5.91c-.72,1.49-2.93,7.41,1.66,8.75a12.29,12.29,0,0,0,6.29.14A5.3,5.3,0,0,0,446,82.6a4.57,4.57,0,0,0,2.07.57,4.13,4.13,0,0,1,1.59,1.44l.59-.6A10.53,10.53,0,0,1,450,81.3a1.73,1.73,0,0,1,3-1c1.07,1.1.26,3.38-.1,4.61l.59.85a17.79,17.79,0,0,0,1.47-7.53C454.65,74.06,453.8,72.2,453,71.35Z"/><path class="cls-67" d="M436,123.24a3.29,3.29,0,0,0-.67-.49c.29.11.51.17.56.13.21-.16.07-.55-.08-.82a8.6,8.6,0,0,0-1.26-1.09c-.24-.25-.45-.47-.57-.58a7.42,7.42,0,0,1-1.23-2.25c.08-.12.52.57,1.39,1s1.5.23,1.38-.12a13.78,13.78,0,0,0-1.78-3c-.71-.79-2.55-1.37-3.3-1.85a2.32,2.32,0,0,1-1-1.27c-1.1-2.69-2.8-6.84-4.45-10.79-2.22-5.33-2.14-6.87-3.45-8.83-3.78-5.64-6.56-4.31-6.56-4.31a7.53,7.53,0,0,0-2.6,8c.59,2.22,2,4.29,4.17,7.5a125.81,125.81,0,0,0,9.59,11.89c1.19,1.45,1.63,4.2,2.13,5.1.27.49,3,3.23,4.83,3.22.17,0,.12-.3.06-.49a4.15,4.15,0,0,0,1.56.5c.38,0,.13-.63-.22-.94h0a5.24,5.24,0,0,0,1.52.55C436.34,124.13,436.39,123.82,436,123.24Z"/><path class="cls-67" d="M475.82,112.57,465,117.26l3,8.69s-5.39,10.41-8.6,16.77h0s-3.89,2.09-4.67,2.45a5.22,5.22,0,0,0-2.09,2.5,18.69,18.69,0,0,0-.53,4.05h0a6,6,0,0,0,.1,1.89c.19.23.69.21,1-.34a3.75,3.75,0,0,0,0,1.8c.54.35,1-.54,1.05-.55a.76.76,0,0,0,.09.3.93.93,0,0,0,1.35-.4c1.29.55,2-1.31,2-1.31a15.32,15.32,0,0,1,1.67-1.71c.77-.48,3.53-.77,4.32-4.48h0a13.82,13.82,0,0,1,2.69-3.74c4.53-4.61,11.28-11.25,12.64-17.51C479.54,121.74,475.82,112.57,475.82,112.57Z"/><path class="cls-14" d="M467.87,98.22a26.92,26.92,0,0,1,4.32,5.68,60.48,60.48,0,0,1,5.94,13.21S479,122,465,123.74l-9.48-18Z"/><path class="cls-68" d="M423.74,98.6a28.68,28.68,0,0,0-2.51-4.85,16.85,16.85,0,0,1,3.29,4.83Z"/><polygon class="cls-69" points="437.74 100.72 460.27 114.81 461.39 116.94 435.31 100.47 437.74 100.72"/><path class="cls-70" d="M573.23,363l-31.05-19.51a2,2,0,0,0-2-.11h0l-2.85,1.47s1.07,1.61,1.15,1.85a.27.27,0,0,0,.13.13v27.21a4.46,4.46,0,0,0,2.1,3.74l32.23,20.26-.37.86,0,.49,2.87-1.48a1.73,1.73,0,0,0,.92-1.55V368.68A6.76,6.76,0,0,0,573.23,363Z"/><path class="cls-71" d="M573.61,370.12v27.69a1.76,1.76,0,0,1-2.76,1.45l-32.36-20.34a4.44,4.44,0,0,1-2.1-3.73V346.5a1.91,1.91,0,0,1,3-1.57l31,19.51A6.76,6.76,0,0,1,573.61,370.12Z"/><path class="cls-72" d="M551,361.28l9.09,13.39a.33.33,0,0,1-.19.52l-9.09,1.94a.35.35,0,0,1-.43-.35V361.44A.33.33,0,0,1,551,361.28Z"/><path class="cls-25" d="M402.48,408.83v.11a2.07,2.07,0,0,1-.46,1.33c-1.39,1.62-4.67,2.31-5.35,2.44l-.12,0c-1.86.29-3.94.4-4.84.5a12.2,12.2,0,0,0-1.81.31v.21a14.49,14.49,0,0,1-2.55.42h0a4.5,4.5,0,0,1-2.77-.61,2.64,2.64,0,0,1-.75-1.29v-.78l2.41-.17h0l1.2-.08,1.11-.07,1-.07Z"/><path class="cls-14" d="M392,405.22s2.23.38,3.91.53a45.4,45.4,0,0,1,5.17.65,2.17,2.17,0,0,1,1.43,2.34c-.28,2.25-5.35,3.63-8.56,3.89a47.81,47.81,0,0,0-4.89.46A7.56,7.56,0,0,1,385,413c-1.66-.82-1.77-4.37-.76-6S392,405.22,392,405.22Z"/><path class="cls-26" d="M385,403.15s-.12,2.52-.16,3-.27.85-.2,1.26c.11.64,1.62,1.28,3.7,1.05a6.33,6.33,0,0,0,4.15-2c.37-.63-.2-.82-.3-1.09-.16-.42,0-4.17-.28-2.9"/><path class="cls-25" d="M377.92,391.87a3.7,3.7,0,0,1-.08,1.82,5.92,5.92,0,0,1-1.42,2.24,11.39,11.39,0,0,1-2.28,1.89,18.29,18.29,0,0,0-1.91,1.33,13.61,13.61,0,0,0-1.36,1.78v.38a6,6,0,0,1-1.9,1.49,4.75,4.75,0,0,1-3.5.19,2.45,2.45,0,0,1-1.63-2c0-.27,0-1.29,0-1.29"/><path class="cls-14" d="M369.4,393.26a18.84,18.84,0,0,0,4.18-1.94c2.07-1.48,3.59-1.1,4.11-.22s.73,3.87-3.69,6.45a8.3,8.3,0,0,0-3.05,2.7,5.7,5.7,0,0,1-2.08,1.87,4.32,4.32,0,0,1-2.31.4c-3-.25-3.66-3.31-2.18-5.64S369.4,393.26,369.4,393.26Z"/><path class="cls-26" d="M364.81,394.61l-.12,2.28a1.57,1.57,0,0,0-.19,1c.15.62,1.9,1.81,4.3.55,2.69-1.42,2.39-3.52,2.41-3.64.14-.95-.4,0-.4-.81"/><path class="cls-73" d="M400.84,355.6c-.86,7.63-3.58,20.54-4.52,27s-2.77,21.43-2.77,21.43-1,1.53-4.47,2-4.91-1.63-4.91-1.63-1.15-20.78-.91-24.56,1.35-10.76,1.18-14.47c-.11-2.68-.07-9-1.39-14.63-.19.59-.39,1.13-.58,1.59-2,4.52-5.79,14.22-6.84,17.9S372,395,372,395A3.19,3.19,0,0,1,371,396a8.9,8.9,0,0,1-2.73,1.23c-3.14.88-4.24-.92-4.24-.92-.38-2.2-.09-26.42,1-30.53a95.38,95.38,0,0,0,2.57-14.51c.24-3.95.72-12.74.24-17.9a14.85,14.85,0,0,1,.39-5.1,13.63,13.63,0,0,1,1.47-3.78s30.21,1.65,31.22,6.24a33.15,33.15,0,0,1,.63,4.44A113.49,113.49,0,0,1,400.84,355.6Z"/><path class="cls-74" d="M383.05,350.78c-.19.6-.39,1.13-.59,1.6a69.34,69.34,0,0,0-3.55-6.61A17.15,17.15,0,0,1,376,337c1,4.5,5.24,8.18,5.24,8.18Z"/><path class="cls-26" d="M391,270.13a7.59,7.59,0,0,1-2.12.91l-.13,0-.17.05c-.14.05-.34.11-.57.21a.81.81,0,0,0-.44.41,30.07,30.07,0,0,0,0,5l-1.34-.47-8.14-2.8s.11-2.19,0-4.2-.28-12.75,2.39-14.59,10.35-.72,11.22.32c0,0,.26,1.63.78,4.69S392.52,269.13,391,270.13Z"/><path class="cls-75" d="M380.2,251a8.57,8.57,0,0,0-5.79,9.09c.22,3.09,1.92,5.27,2.36,6.28s.48,1.65.81,2.23,3.36,3.13,6.4,2.32c1.37-.37,2-2.4,2.12-3.27s.21-3.28.43-4,1-1.48,1.5-1.38.87,1.06,1.09,2,.69.95.91.73.11-2.58.25-3.31,1.4-1.32,1.52-3.46a10.8,10.8,0,0,1,1.05-2.68c1.26-4.23-2.65-6.81-5.42-7.49C384.47,247.28,382.59,250.16,380.2,251Z"/><polygon class="cls-76" points="395.34 275.86 395.34 300.38 424.52 318.61 424.52 294.08 395.34 275.86"/><polygon class="cls-77" points="395.34 275.86 395.34 300.38 374.74 311.14 374.74 286.61 395.34 275.86"/><path class="cls-78" d="M421.75,288.92l-10.39,15.92a.76.76,0,0,1-1,.24L388.68,292a.76.76,0,0,1-.24-1.07l10.64-16.3a.77.77,0,0,1,1-.22l21.4,13.44A.76.76,0,0,1,421.75,288.92Z"/><path class="cls-79" d="M398,299.41l-7.27.38a.92.92,0,0,1-1-.88l-1-23.86a.92.92,0,0,1,.86-.95l7.28-.39a.92.92,0,0,1,1,.88l.95,23.87A.91.91,0,0,1,398,299.41Z"/><path class="cls-80" d="M413.09,310.26H401.42a.71.71,0,0,1-.71-.67L400,294.83a.72.72,0,0,1,.71-.75h11.66a.71.71,0,0,1,.71.68l.75,14.76A.71.71,0,0,1,413.09,310.26Z"/><polygon class="cls-81" points="424.52 294.08 424.52 318.6 403.91 329.36 403.91 304.84 424.52 294.08"/><polygon class="cls-82" points="374.73 286.61 374.73 311.13 403.91 329.36 403.91 304.84 374.73 286.61"/><path class="cls-83" d="M424.27,317.34a4.32,4.32,0,0,0-1.47-.47,12.21,12.21,0,0,1-3.05-.35,13.64,13.64,0,0,1-2.56-1.85h0c-2.57-2.51-6.57-6.37-9.15-8.56-.6-1.78-1.82-5.82-2.07-6.43a9.43,9.43,0,0,1-4.67,4.15c-3,1.09-4.64.11-4.84,0h0c.13.29.27.58.42.84.47.93,1.48,2.64,2.08,3.65a6.51,6.51,0,0,0,3.3,3.38s5.33,3.06,10.05,5.25a26.2,26.2,0,0,1,4.78,2.82c.94,1.06,2.06,2.33,2.52,2.34.8,0,1.22-.42,1.78-.41s1-.55,1.25-.62a2.2,2.2,0,0,0,.93-.54c.29-.29.28-1.6.28-1.6l-.71.37s-1-.63-1.06-.88a.3.3,0,0,1,.1-.37,13.77,13.77,0,0,1,1.49-.11C424.1,318,424.4,317.46,424.27,317.34Z"/><path class="cls-83" d="M406.25,300.34a15.37,15.37,0,0,1-3.86,3,9.85,9.85,0,0,0,3.59-3.65Z"/><path class="cls-14" d="M406.84,299.68s-.22.27-.59.66a14.65,14.65,0,0,1-3.87,3,3.46,3.46,0,0,1-.5.27c-.18.08-.38.14-.58.22a4.71,4.71,0,0,1-.75.25,5.88,5.88,0,0,1-3.55,0l-.24-.1-.18-.09-.07,0s0,0,0,0h0c.15.3.29.58.44.86.67,1.28,2.4,4.15,2.55,4.41h0a42.65,42.65,0,0,0,1.07,11A72.67,72.67,0,0,1,401.7,331v0c.21,3.55.33,9.35,0,7.73-.17-.74-1.74-5.69-2-5.69a9.9,9.9,0,0,0-.8,2.44,7.49,7.49,0,0,1-7.33,5.88,19.23,19.23,0,0,1-2.23-.07h0c-5.66-1.43-16.92-8.82-19.72-10.44a4,4,0,0,1-1.87-3.92h0c.08-.52.16-1,.21-1.34a.06.06,0,0,0,0,0c.09-.5.14-.81.14-.81A81.91,81.91,0,0,1,370.47,313c1.57-5.26,1.44-9.24-2-15.25-4.31-7.48-6.23-17.82-1.72-22.22a7.41,7.41,0,0,1,8.51-1.85l1.06-1.14a50.1,50.1,0,0,1,13.57,5.38V279l.39.19c5.15,2.42,9.27,5.07,11.3,8.78A80.68,80.68,0,0,1,406.84,299.68Z"/><path class="cls-84" d="M389.85,278.48V279s-6.11-2.62-9.45-3.71A70.68,70.68,0,0,1,389.85,278.48Z"/><path class="cls-85" d="M399.94,317a46.62,46.62,0,0,0-2.81-7.57c-2.06-4.66-4.12-8.52-5.78-13.23l3.79,6.79,1.31.86,0,0a7.63,7.63,0,0,0,.4.81c.67,1.28,2.4,4.16,2.55,4.42h0v0A37.9,37.9,0,0,0,399.94,317Z"/><path class="cls-86" d="M251.49,77.2l-13.87-8.73a1.46,1.46,0,0,0-1.53,0L233.21,70l1.46,1.17.67,0V82.75A5.06,5.06,0,0,0,237.7,87l12.23,7.7-.24,1.63.64.92L253,95.82l.07,0,0,0h0a1.46,1.46,0,0,0,.71-1.25v-13A5.06,5.06,0,0,0,251.49,77.2Z"/><path class="cls-87" d="M248.78,97.27l-13.87-8.74a5.06,5.06,0,0,1-2.36-4.28v-13A1.48,1.48,0,0,1,234.82,70l13.87,8.73A5.06,5.06,0,0,1,251.05,83V96A1.48,1.48,0,0,1,248.78,97.27Z"/><path class="cls-15" d="M300.3,108.64h0a.67.67,0,0,1-1,.57L258.67,83.65a1.65,1.65,0,0,1-.77-1.4h0a.67.67,0,0,1,1-.56l40.61,25.56A1.64,1.64,0,0,1,300.3,108.64Z"/><path class="cls-15" d="M298.32,114.08l-39.64-25a1.64,1.64,0,0,1-.77-1.39h0a.66.66,0,0,1,1-.56l39.64,25a1.65,1.65,0,0,1,.77,1.4h0A.67.67,0,0,1,298.32,114.08Z"/><path class="cls-15" d="M287.49,111.51h0a.67.67,0,0,1-1,.56L258.68,94.58a1.65,1.65,0,0,1-.77-1.4h0a.67.67,0,0,1,1-.56l27.79,17.5A1.66,1.66,0,0,1,287.49,111.51Z"/><path class="cls-15" d="M271.49,106.89h0a.66.66,0,0,1-1,.56L258.68,100a1.66,1.66,0,0,1-.77-1.4h0a.67.67,0,0,1,1-.56l11.79,7.42A1.63,1.63,0,0,1,271.49,106.89Z"/><path class="cls-15" d="M300.3,142.91h0a.66.66,0,0,1-1,.56l-43.4-27.32a1.66,1.66,0,0,1-.78-1.4v0a.67.67,0,0,1,1-.56l43.41,27.32A1.68,1.68,0,0,1,300.3,142.91Z"/><path class="cls-15" d="M295.52,146.58l-39.63-25a1.66,1.66,0,0,1-.78-1.41h0a.67.67,0,0,1,1-.56l39.64,25a1.66,1.66,0,0,1,.78,1.4h0A.67.67,0,0,1,295.52,146.58Z"/><path class="cls-15" d="M298.06,153.64l-42.17-26.56a1.64,1.64,0,0,1-.78-1.41h0a.67.67,0,0,1,1-.56l42.18,26.56a1.65,1.65,0,0,1,.77,1.4h0A.66.66,0,0,1,298.06,153.64Z"/><path class="cls-15" d="M284.5,150.56l-28.61-18a1.64,1.64,0,0,1-.78-1.4h0a.67.67,0,0,1,1-.56l28.61,18a1.64,1.64,0,0,1,.78,1.41h0A.67.67,0,0,1,284.5,150.56Z"/><path class="cls-87" d="M248.78,129.49l-13.87-8.73a5.06,5.06,0,0,1-2.36-4.28v-13a1.47,1.47,0,0,1,2.27-1.25l13.87,8.73a5.06,5.06,0,0,1,2.36,4.28v13A1.48,1.48,0,0,1,248.78,129.49Z"/><path class="cls-88" d="M263.26,151.84,238,136a3.4,3.4,0,0,0-5.21,2.88v36.63a8.39,8.39,0,0,0,3.95,7.15L262,198.51a3.39,3.39,0,0,0,1.8.53,3.47,3.47,0,0,0,1.65-.43,3.35,3.35,0,0,0,1.75-3V159A8.42,8.42,0,0,0,263.26,151.84Zm-28.19-15.11a2.32,2.32,0,0,1,1.16-.31,2.41,2.41,0,0,1,1.28.38l25.21,15.89A7.42,7.42,0,0,1,266.2,159v2.8l-32.37-20.4v-2.57A2.37,2.37,0,0,1,235.07,136.73Zm29.9,61a2.37,2.37,0,0,1-2.44-.07l-25.22-15.9a7.38,7.38,0,0,1-3.48-6.3V142.58L266.2,163v32.66A2.37,2.37,0,0,1,265,197.73Z"/><path class="cls-15" d="M300.3,175.86h0a.66.66,0,0,1-1,.56l-27-17a1.67,1.67,0,0,1-.77-1.39h0a.68.68,0,0,1,1-.57l27,17A1.65,1.65,0,0,1,300.3,175.86Z"/><path class="cls-15" d="M297.76,179.71h0a.67.67,0,0,1-1,.57l-24.44-15.4a1.64,1.64,0,0,1-.77-1.39h0a.67.67,0,0,1,1-.57L297,178.32A1.64,1.64,0,0,1,297.76,179.71Z"/><path class="cls-15" d="M300.3,186.76v0a.66.66,0,0,1-1,.56l-27-17a1.69,1.69,0,0,1-.77-1.4v0a.67.67,0,0,1,1-.56l27,17A1.66,1.66,0,0,1,300.3,186.76Z"/><path class="cls-15" d="M286.74,183.69h0a.67.67,0,0,1-1,.56l-13.42-8.44a1.65,1.65,0,0,1-.77-1.4h0a.67.67,0,0,1,1-.56L286,182.3A1.63,1.63,0,0,1,286.74,183.69Z"/><path class="cls-83" d="M440.36,456s-.11,2.26-.14,2.66-.24.76-.18,1.12c.1.58,5.29,10.88,7.81,10.62,1.86-.19,4.52-2.15,1.55-3.17-1.47-.85-2.52-9.05-2.61-9.29s0-3.73-.25-2.59Z"/><path class="cls-83" d="M429.47,451.55s-.11,2.25-.14,2.66-.24.76-.18,1.12c.1.57,5.29,10.88,7.81,10.62,1.86-.2,4.52-2.15,1.54-3.17-1.46-.85-2.51-9-2.6-9.29s0-3.73-.25-2.59Z"/><path class="cls-89" d="M426.88,430.08c-.36,7.55,2.1,22.57,2.1,22.57s1.44,2.35,7-.77c0,0,.86-22.57,1.8-28.95a42.93,42.93,0,0,1,1-5.17v0a51.64,51.64,0,0,0,2.24-12.28c.18-3.57-.46-10.85-1.15-17.27s-1.44-12.08-1.44-12.08a14.52,14.52,0,0,1-9.77-3.83s-6.67,9-2.43,18.54a21.08,21.08,0,0,1,1.69,6.95c.25,3.2.56,7.58.72,11.4.25,6.2.71,8,.44,8.69S427.23,422.54,426.88,430.08Z"/><path class="cls-90" d="M435.38,397a116.81,116.81,0,0,1,3.47,20.7,51.64,51.64,0,0,0,2.24-12.28c.18-3.57-.46-10.85-1.15-17.27-2.13-1.67-6-4.74-6-4.74S432.34,389.38,435.38,397Z"/><path class="cls-89" d="M450.7,375.34a106.48,106.48,0,0,1,2.88,19.16c.45,9.79-1.73,23.81-2.18,27.13s-1.53,8.51-2.45,16.77c-.87,7.77-1.55,17.72-1.55,17.72s-5.64,3.21-7.84.42c0,0-1.36-22-.73-28.86s2-7.31,1.85-9.55-2.63-20.59-3.71-22.21-6.21-8.87-.82-20.19A33.73,33.73,0,0,0,450.7,375.34Z"/><path class="cls-91" d="M481.6,347.39l-12.92,20.4a2,2,0,0,1-2.78.62l-25.1-15.83a2,2,0,0,1-.6-2.82l5.47-8.31,7.82-11.86a2,2,0,0,1,2.77-.59L481,344.6A2,2,0,0,1,481.6,347.39Z"/><path class="cls-92" d="M479.57,347.52l-11.65,18.4a1.82,1.82,0,0,1-2.51.56L442.77,352.2a1.82,1.82,0,0,1-.55-2.54l4.94-7.5,7.06-10.7a1.82,1.82,0,0,1,2.49-.53L479,345A1.82,1.82,0,0,1,479.57,347.52Z"/><path class="cls-83" d="M469.44,356.75a4,4,0,0,0,.68-1,3.9,3.9,0,0,1,.68-1.61c.5-.61,1.9-3,2.18-2.87a1.75,1.75,0,0,1,.35,1.8c-.23.94-.62,1.55-.63,1.79s1.61.28,2.59-.05a12.48,12.48,0,0,0,2.79-1.84,1.56,1.56,0,0,1,.1,1.06c-.28.77-1.05,1.44-1.2,2.05a29.31,29.31,0,0,1-2,3.55Z"/><path class="cls-83" d="M442.24,347l2.91-2.82a4.8,4.8,0,0,1,1.33-.9,6.65,6.65,0,0,0,1.38-.78c.69-.56,1-2,1.26-2.52s1.93-2,2.08-2.39.21-1-.33-1a15.39,15.39,0,0,0-3.16,1.72l1.33-2s-2.15.87-3.47,1.56-1.65,2.54-2.17,3-4,3.19-4,3.19Z"/><path class="cls-93" d="M448.05,318.18s.92,3.44-1.38,5.6-1.29-4.7-1.29-4.7Z"/><path class="cls-83" d="M433.92,343.7l8-.92,1.2.42a24.52,24.52,0,0,1-.22-6.43,18,18,0,0,0,3.31-1.78c1.61-1.17,1.45-6.65,1.33-9.42s-.41-6.12-.41-6.12c-.78-.93-8,0-10.37,1.63s-2.24,11.29-2.15,13.09,0,6.1,0,6.1Z"/><path class="cls-14" d="M429.27,365.23a21.57,21.57,0,0,1-2.21,10,31.28,31.28,0,0,0,14.07,5.43A16.73,16.73,0,0,0,451.52,379s-1-5-1.42-9.16a24.71,24.71,0,0,1-.17-3.56c.08-1.63.49-4.67.88-7.83.53-4.31,1-8.88.43-10.57-.95-2.93-8.2-7.52-8.2-7.52s-8.68.59-8.47-1.89c0,0-4.7-.7-6.86.32s-2.52,6.93-1.85,11.91S428.91,360.19,429.27,365.23Z"/><path class="cls-94" d="M443.07,353.51a113.2,113.2,0,0,0,3.18,11.76,17,17,0,0,0,1.78,0l2.07,4.54a24.71,24.71,0,0,1-.17-3.56c.08-1.63.49-4.67.88-7.83l-.34-1.15Z"/><path class="cls-83" d="M475,359.6a3.1,3.1,0,0,1-1.77.77l-.16,0c-1.06.14-1.27,0-2.32.09s-11.1,9.3-12.62,10.68l-.19.18h0l-.27.19c-2.9,2-3.77,1-5.38-1.42-.45-.69-1.14-1.91-1.85-3.23L450,366l-.06-.11s0,0,0,0c-.39-.72-.76-1.44-1.09-2.08-.73-1.4-1.25-2.45-1.25-2.45a28.39,28.39,0,0,0,2.95-1c2.11-.76,4.58-1.68,4.59-1.69.09.21.27.73.5,1.37.45,1.3,1.07,3.06,1.26,3.52,3.69-2.12,10.69-5.85,11.83-6.51.26-.15.55-.35.86-.57,1-.69,2.11-1.6,2.79-2a13.57,13.57,0,0,0,1.88,4C474.68,359.16,475,359.6,475,359.6Z"/><path class="cls-14" d="M451.24,347.85l4.8,11.89S452,364,447.54,364c0,0-4.63-8.71-4.89-12.66Z"/><path class="cls-14" d="M434.6,337l-.42,1.41a2.38,2.38,0,0,0,1.61,2.09c2.75,1.1,6.83.53,7.82.23l-.6-1.9S437.39,339.62,434.6,337Z"/><path class="cls-93" d="M437.89,332.89s2.93,4.53.39,8.57-8.94,2-8.94-2.12c0-5.42,3.4-7,3.4-7Z"/><path class="cls-93" d="M429.28,322.16c.74-5.17,4.64-9.6,13.34-8.14,1.83.3,5.85,1.88,5.44,5.16a3.35,3.35,0,0,1-.47,1.4c.5,1.82.57,5.29-5.15,8.1.1,1-.54,1.18-.77,2.94-.34,2.75-3,4.53-6.53,4C432.35,335.22,428,331.45,429.28,322.16Z"/><path class="cls-15" d="M438.38,462.05c.15,1.37,1.51,4.06,1.74,5s.71,7.13.71,7.13h1l.25-7v0c.09.26.82,2.34,1.15,3.54s3.36,2.35,4.38,2.32,5.55-3.1,6.57-4.89-4.81-1-4.81-1,1.61.83,1,1.59-2.21.39-3.27-1c-1.29-1.69-3.43-11.26-7.13-8.82C440,459,438.19,460.31,438.38,462.05Z"/><path class="cls-95" d="M442.1,467.23v0c.09.26.82,2.34,1.15,3.54s3.36,2.35,4.38,2.32c-.49-.06-1.2-1.21-2.15-3-1.46-2.82-2.35-3.88-2.82-3.66A1.19,1.19,0,0,0,442.1,467.23Z"/><path class="cls-15" d="M427.49,457.6c.15,1.36,1.51,4.06,1.74,5s.71,7.13.71,7.13h1l.25-7v0c.09.25.82,2.34,1.15,3.54s3.36,2.35,4.38,2.32,5.55-3.11,6.57-4.89-4.82-1-4.82-1,1.62.83,1,1.58-2.21.4-3.27-1c-1.29-1.68-3.43-11.25-7.13-8.81C429.06,454.56,427.3,455.85,427.49,457.6Z"/><path class="cls-96" d="M431.21,462.77v0c.09.25.82,2.34,1.15,3.54s3.36,2.35,4.38,2.32c-.49-.06-1.2-1.21-2.15-3-1.46-2.82-2.35-3.89-2.82-3.66A1.18,1.18,0,0,0,431.21,462.77Z"/><path class="cls-70" d="M515.4,122.68l-18.8-11.82a1.19,1.19,0,0,0-1.19-.06h0l-2,1s.65,1,.7,1.12a.29.29,0,0,0,.08.08v16.48a2.68,2.68,0,0,0,1.27,2.26l19.52,12.27-.22.52,0,.3,2-1a1,1,0,0,0,.56-.94V126.12A4.08,4.08,0,0,0,515.4,122.68Z"/><path class="cls-97" d="M515.35,127.13v16.78a1.06,1.06,0,0,1-1.67.87l-19.6-12.31a2.7,2.7,0,0,1-1.27-2.27V112.83a1.16,1.16,0,0,1,1.81-1l18.8,11.82A4.1,4.1,0,0,1,515.35,127.13Z"/><path class="cls-15" d="M509.48,137.66l-3-4.95a.74.74,0,0,1,.22-1,3.1,3.1,0,0,0,1-2.55c0-3.15-2.56-7.43-5.71-9.55s-5.72-1.28-5.72,1.87,2.57,7.44,5.72,9.56a7.31,7.31,0,0,0,2,1,2.76,2.76,0,0,1,1.58,1.27l2.79,4.66a1.61,1.61,0,0,0,.52.57.63.63,0,0,0,.53.14C509.77,138.61,509.77,138.14,509.48,137.66Zm-11.69-15.14c0-2.33,1.9-3,4.23-1.38s4.23,4.73,4.23,7.06-1.9,3-4.23,1.39S497.79,124.85,497.79,122.52Z"/><path class="cls-98" d="M581.11,166.54V180a.86.86,0,0,1-1.34.7l-58.59-36.92a2.17,2.17,0,0,1-1-1.82V128a.93.93,0,0,1,1.45-.76l57.95,36.52A3.27,3.27,0,0,1,581.11,166.54Z"/><g class="cls-99"><path class="cls-15" d="M577,167.36l-53.5-34.1a1.79,1.79,0,0,1-.8-1.31h0c0-.44.36-.57.8-.29L577,165.77a1.78,1.78,0,0,1,.79,1.31h0C577.81,167.52,577.46,167.65,577,167.36Z"/><path class="cls-15" d="M561.16,161.41l-37.64-24a1.78,1.78,0,0,1-.8-1.3h0c0-.44.36-.57.8-.29l37.64,24a1.78,1.78,0,0,1,.8,1.3h0C562,161.56,561.6,161.69,561.16,161.41Z"/><path class="cls-15" d="M541.54,153.13l-18-11.5a1.78,1.78,0,0,1-.8-1.3h0c0-.44.36-.57.8-.29l18,11.49a1.79,1.79,0,0,1,.8,1.31h0C542.34,153.28,542,153.41,541.54,153.13Z"/><path class="cls-15" d="M551.24,159.3l-6.64-4.25a1.76,1.76,0,0,1-.79-1.3h0c0-.44.35-.57.79-.29l6.64,4.25a1.75,1.75,0,0,1,.8,1.3h0C552,159.45,551.69,159.58,551.24,159.3Z"/></g><path class="cls-100" d="M392.24,49.93v5.36a.34.34,0,0,1-.53.28l-6.27-3.94a.86.86,0,0,1-.4-.72V45.35a.37.37,0,0,1,.58-.3l6,3.78A1.31,1.31,0,0,1,392.24,49.93Z"/><path class="cls-101" d="M680.79,236.25v6a.39.39,0,0,1-.6.32l-7-4.42a1,1,0,0,1-.46-.81v-6.22a.42.42,0,0,1,.65-.34L680.1,235A1.49,1.49,0,0,1,680.79,236.25Z"/><path class="cls-102" d="M643.07,220.86v4.7a.29.29,0,0,1-.46.24l-5.5-3.45a.75.75,0,0,1-.35-.63v-4.87a.32.32,0,0,1,.5-.27l5.27,3.31A1.14,1.14,0,0,1,643.07,220.86Z"/><path class="cls-103" d="M496,76.88v4.7a.3.3,0,0,1-.47.25L490,78.37a.75.75,0,0,1-.36-.63V72.87a.32.32,0,0,1,.51-.26l5.27,3.31A1.15,1.15,0,0,1,496,76.88Z"/><path class="cls-104" d="M697.56,311.39v4.7a.29.29,0,0,1-.46.24l-5.5-3.45a.75.75,0,0,1-.35-.63v-4.87a.32.32,0,0,1,.5-.27l5.27,3.31A1.14,1.14,0,0,1,697.56,311.39Z"/><path class="cls-105" d="M654.22,422.07v4.7a.3.3,0,0,1-.47.25l-5.49-3.46a.74.74,0,0,1-.35-.63v-4.87a.31.31,0,0,1,.5-.26l5.27,3.31A1.12,1.12,0,0,1,654.22,422.07Z"/><path class="cls-106" d="M221.84,163.56v4.7a.3.3,0,0,1-.47.24l-5.49-3.45a.75.75,0,0,1-.35-.63v-4.87a.32.32,0,0,1,.5-.27l5.27,3.32A1.12,1.12,0,0,1,221.84,163.56Z"/><path class="cls-107" d="M273.12,66.83V74a.45.45,0,0,1-.71.37l-8.32-5.22a1.14,1.14,0,0,1-.54-1V60.76a.49.49,0,0,1,.77-.4l8,5A1.76,1.76,0,0,1,273.12,66.83Z"/><path class="cls-108" d="M417,59.77v7.12a.45.45,0,0,1-.71.37L407.92,62a1.15,1.15,0,0,1-.54-1V53.7a.49.49,0,0,1,.77-.4l8,5A1.74,1.74,0,0,1,417,59.77Z"/><path class="cls-109" d="M579.48,102.44V107a.29.29,0,0,1-.45.24l-5.35-3.36a.73.73,0,0,1-.35-.62V98.54a.32.32,0,0,1,.5-.26L579,101.5A1.13,1.13,0,0,1,579.48,102.44Z"/><path class="cls-110" d="M672.71,195.84v4.58a.28.28,0,0,1-.45.24l-5.35-3.36a.73.73,0,0,1-.35-.62v-4.74a.32.32,0,0,1,.5-.26l5.13,3.22A1.14,1.14,0,0,1,672.71,195.84Z"/><path class="cls-111" d="M616.27,181.86v2.93a.18.18,0,0,1-.29.15l-3.43-2.15a.47.47,0,0,1-.22-.39v-3a.2.2,0,0,1,.32-.16l3.28,2.06A.71.71,0,0,1,616.27,181.86Z"/><path class="cls-112" d="M539.3,118.27v2.93a.19.19,0,0,1-.3.15l-3.42-2.15a.46.46,0,0,1-.22-.39v-3a.2.2,0,0,1,.32-.16l3.28,2.06A.71.71,0,0,1,539.3,118.27Z"/><path class="cls-113" d="M268.67,242.43v2.93a.19.19,0,0,1-.29.16L265,243.36a.44.44,0,0,1-.22-.39v-3a.2.2,0,0,1,.31-.16l3.29,2.06A.7.7,0,0,1,268.67,242.43Z"/><path class="cls-114" d="M343.75,80.89l-6-3.74V74.33c0-.53-.6-1.22-1-1.2l-7.05.36c-.39,0-.39.59,0,1.1l7.05,9.16c.44.58,1,.64,1,.1V81l6,3.74c.38.24.68.12.68-.25V82A1.51,1.51,0,0,0,343.75,80.89Z"/><path class="cls-13" d="M350,88.69l6,3.75v2.81c0,.53.6,1.22,1,1.2l7-.35c.39,0,.39-.6,0-1.11l-7-9.16c-.44-.57-1-.63-1-.1v2.82l-6-3.75c-.38-.24-.69-.12-.69.26v2.52A1.49,1.49,0,0,0,350,88.69Z"/><path class="cls-13" d="M384.89,107.47l-7.1-10.77c-.34-.51-.85-.82-1.18-.73l-7.1,1.89c-.3.08-.11.68.28.93l1.84,1.14v6.87a2.41,2.41,0,0,0,1.09,1.77L375,110c.3.19.55.1.55-.21v-3.41c0-.3.24-.39.54-.2l2.17,1.35a1.19,1.19,0,0,1,.54.87v3.42a1.24,1.24,0,0,0,.55.9l2.32,1.45c.6.38,1.09.19,1.09-.41V106.9l1.84,1.14C385,108.29,385.19,107.92,384.89,107.47Z"/></g></g></svg>